<?xml version="1.0" encoding="UTF-8" standalone="no"?>
<svg
   xmlns:dc="http://purl.org/dc/elements/1.1/"
   xmlns:cc="http://creativecommons.org/ns#"
   xmlns:rdf="http://www.w3.org/1999/02/22-rdf-syntax-ns#"
   xmlns:svg="http://www.w3.org/2000/svg"
   xmlns="http://www.w3.org/2000/svg"
   xmlns:sodipodi="http://sodipodi.sourceforge.net/DTD/sodipodi-0.dtd"
   xmlns:inkscape="http://www.inkscape.org/namespaces/inkscape"
   width="640pt"
   height="480pt"
   viewBox="0 0 640 480"
   version="1.1"
   id="svg3336"
   inkscape:version="0.91 r13725"
   sodipodi:docname="export.svg">
  <metadata
     id="metadata3668">
    <rdf:RDF>
      <cc:Work
         rdf:about="">
        <dc:format>image/svg+xml</dc:format>
        <dc:type
           rdf:resource="http://purl.org/dc/dcmitype/StillImage" />
        <dc:title></dc:title>
      </cc:Work>
    </rdf:RDF>
  </metadata>
  <defs
     id="defs3666" />
  <sodipodi:namedview
     pagecolor="#ffffff"
     bordercolor="#666666"
     borderopacity="1"
     objecttolerance="10"
     gridtolerance="10"
     guidetolerance="10"
     inkscape:pageopacity="1"
     inkscape:pageshadow="2"
     inkscape:window-width="1280"
     inkscape:window-height="738"
     id="namedview3664"
     showgrid="false"
     inkscape:zoom="0.89833333"
     inkscape:cx="400"
     inkscape:cy="300"
     inkscape:window-x="-8"
     inkscape:window-y="-8"
     inkscape:window-maximized="1"
     inkscape:current-layer="svg3336" />
  <path
     fill="#fefefe"
     d=" M 0.00 0.00 L 640.00 0.00 L 640.00 480.00 L 0.00 480.00 L 0.00 0.00 Z"
     id="path3338" />
  <path
     fill="#d6e815"
     d=" M 40.04 19.98 C 44.30 17.59 49.32 18.17 54.00 18.11 C 101.99 18.14 149.98 18.13 197.97 18.11 C 202.21 18.22 206.67 17.60 210.68 19.33 C 216.03 21.57 219.76 27.10 219.82 32.90 C 219.99 41.21 219.80 49.52 219.89 57.82 C 238.74 65.37 257.53 73.05 276.37 80.62 C 279.92 82.01 283.46 83.45 286.85 85.22 C 287.80 82.99 288.76 80.78 289.74 78.56 C 295.61 86.95 301.06 95.62 306.75 104.13 C 296.55 105.69 286.35 107.16 276.17 108.83 C 277.52 106.03 278.80 103.20 280.09 100.38 C 259.94 92.70 240.06 84.29 220.03 76.31 C 219.93 80.78 219.45 85.71 216.17 89.09 C 213.25 92.69 208.68 94.62 204.08 94.44 C 155.06 94.43 106.04 94.43 57.03 94.43 C 53.02 94.39 48.98 94.66 44.99 94.19 C 37.73 93.30 31.94 86.37 32.15 79.08 C 32.09 64.04 32.13 48.99 32.13 33.95 C 31.95 28.29 34.99 22.64 40.04 19.98 Z"
     id="path3340" />
  <path
     fill="#4f5833"
     d=" M 63.78 42.03 C 64.07 42.01 64.67 41.96 64.97 41.94 C 67.67 44.60 69.42 48.04 71.62 51.09 C 71.62 47.73 71.61 44.36 72.00 41.02 C 74.56 44.85 73.29 50.01 72.99 54.34 C 69.27 52.52 67.92 48.02 65.37 44.94 C 65.38 48.29 65.39 51.65 65.00 54.99 C 62.40 51.26 63.91 46.28 63.78 42.03 Z"
     id="path3342" />
  <path
     fill="#4f5833"
     d=" M 99.23 42.07 C 99.64 42.05 100.48 42.00 100.89 41.97 C 100.90 42.65 100.93 44.01 100.94 44.69 C 104.62 44.12 108.28 47.05 106.98 50.97 C 106.19 54.64 102.07 54.11 99.22 54.01 C 99.25 50.03 99.25 46.05 99.23 42.07 Z"
     id="path3344" />
  <path
     fill="#4f5833"
     d=" M 136.84 45.52 C 138.45 43.63 140.01 41.33 142.89 41.68 C 141.83 42.59 140.75 43.47 139.68 44.36 C 140.39 44.72 141.82 45.42 142.53 45.78 C 141.92 45.88 140.70 46.08 140.09 46.19 C 140.12 49.08 140.10 51.99 139.80 54.87 C 137.70 52.60 138.62 49.36 138.48 46.58 C 138.07 46.31 137.25 45.78 136.84 45.52 Z"
     id="path3346" />
  <path
     fill="#4f5833"
     d=" M 147.81 54.01 C 147.79 49.91 147.55 45.78 147.99 41.69 C 148.35 41.84 149.05 42.13 149.41 42.28 C 149.76 45.84 149.52 49.43 149.54 53.00 C 151.45 53.00 153.36 53.00 155.28 53.00 L 155.41 54.01 C 152.87 54.00 150.34 54.00 147.81 54.01 Z"
     id="path3348" />
  <path
     fill="#4f5833"
     d=" M 184.35 48.03 C 184.40 45.67 184.12 43.06 185.77 41.12 C 186.27 45.69 186.27 50.31 185.77 54.88 C 184.12 52.97 184.40 50.37 184.35 48.03 Z"
     id="path3350" />
  <path
     fill="#4f5833"
     d=" M 76.03 52.80 C 75.31 49.95 75.15 46.66 76.78 44.08 C 77.30 47.03 76.85 50.17 77.97 52.99 C 82.38 53.72 80.72 47.65 81.18 45.00 C 81.61 45.00 82.47 45.00 82.90 45.00 C 82.91 47.96 82.93 50.93 82.97 53.89 C 80.70 53.58 77.56 55.07 76.03 52.80 Z"
     id="path3352" />
  <path
     fill="#4f5833"
     d=" M 84.88 44.92 C 87.18 44.99 89.47 45.08 91.74 45.43 C 93.26 45.16 94.77 44.92 96.30 44.69 C 97.16 48.02 97.32 51.49 96.83 54.89 C 94.81 52.39 95.69 49.00 95.00 46.07 C 94.49 46.06 93.47 46.03 92.96 46.02 C 91.30 48.29 92.11 51.37 91.82 54.00 C 91.41 54.00 90.58 54.00 90.16 54.00 C 90.08 51.21 89.96 48.42 89.72 45.64 C 84.95 46.42 87.72 52.05 85.24 54.88 C 84.84 51.57 84.87 48.24 84.88 44.92 Z"
     id="path3354" />
  <path
     fill="#4f5833"
     d=" M 108.42 48.95 C 108.52 47.34 109.84 46.20 110.68 44.92 C 111.61 44.91 113.46 44.90 114.39 44.89 C 115.44 46.50 116.41 48.15 117.35 49.83 C 114.73 50.03 112.11 50.09 109.49 50.26 C 110.30 51.21 111.10 52.16 112.00 53.02 C 113.78 52.41 115.43 51.51 117.16 50.81 C 115.73 53.07 113.51 54.35 110.83 54.48 C 109.76 52.79 108.06 51.14 108.42 48.95 Z"
     id="path3356" />
  <path
     fill="#4f5833"
     d=" M 118.04 45.08 C 119.89 45.03 121.74 44.98 123.60 44.99 C 122.41 45.58 121.21 46.16 120.00 46.72 C 119.84 49.13 119.76 51.53 119.69 53.94 C 119.29 53.96 118.50 54.01 118.10 54.03 C 118.09 51.04 118.07 48.06 118.04 45.08 Z"
     id="path3358" />
  <path
     fill="#4f5833"
     d=" M 128.70 45.82 C 130.49 45.37 132.28 44.96 134.09 44.60 C 136.86 47.45 136.83 51.58 134.11 54.44 C 132.42 53.99 130.43 54.08 129.08 52.81 C 127.55 50.76 128.48 48.12 128.70 45.82 Z"
     id="path3360" />
  <path
     fill="#4f5833"
     d=" M 158.62 54.09 C 155.92 51.50 155.91 47.49 158.64 44.91 C 159.59 44.90 161.49 44.89 162.44 44.88 C 165.17 47.50 165.21 51.56 162.40 54.13 C 161.45 54.12 159.56 54.10 158.62 54.09 Z"
     id="path3362" />
  <path
     fill="#4f5833"
     d=" M 165.20 44.29 C 167.72 45.85 168.49 48.80 169.60 51.34 C 170.59 48.82 171.49 46.17 173.40 44.17 C 172.69 48.64 170.90 52.84 169.02 56.93 C 168.28 56.97 166.78 57.07 166.03 57.12 C 166.99 56.15 167.98 55.22 168.84 54.17 C 167.79 50.82 166.17 47.68 165.20 44.29 Z"
     id="path3364" />
  <path
     fill="#4f5833"
     d=" M 174.28 48.24 C 175.11 47.02 175.97 45.82 176.83 44.63 C 178.52 45.06 180.71 44.67 181.88 46.26 C 182.56 49.05 182.19 51.95 182.13 54.79 C 180.50 53.33 178.79 51.37 181.04 49.48 C 180.49 48.94 179.94 48.41 179.40 47.86 L 181.48 46.93 C 178.92 45.44 176.48 46.84 174.28 48.24 Z"
     id="path3366" />
  <path
     fill="#d6e815"
     d=" M 102.29 46.12 C 106.71 44.82 106.47 54.31 102.12 52.93 C 100.29 51.12 100.20 47.78 102.29 46.12 Z"
     id="path3368" />
  <path
     fill="#d6e815"
     d=" M 109.53 48.78 C 110.70 47.76 111.54 45.20 113.47 46.26 C 114.21 47.10 114.90 47.98 115.55 48.89 C 113.54 48.91 111.53 48.88 109.53 48.78 Z"
     id="path3370" />
  <path
     fill="#d6e815"
     d=" M 131.23 46.13 C 135.08 44.95 135.96 51.57 132.92 52.97 C 129.39 53.58 128.89 47.87 131.23 46.13 Z"
     id="path3372" />
  <path
     fill="#d6e815"
     d=" M 159.31 46.52 C 163.50 43.82 164.64 53.62 160.04 53.01 C 157.72 51.92 157.41 48.11 159.31 46.52 Z"
     id="path3374" />
  <path
     fill="#4f5833"
     d=" M 175.22 49.46 C 176.11 49.19 177.91 48.64 178.80 48.37 C 177.94 49.46 177.01 50.48 175.99 51.43 C 177.28 52.34 178.60 53.21 179.81 54.23 C 176.94 55.26 172.65 52.38 175.22 49.46 Z"
     id="path3376" />
  <path
     fill="#4f5833"
     d=" M 90.32 61.31 C 93.35 59.87 96.31 61.88 97.90 64.42 C 95.93 63.65 94.12 62.45 92.04 61.98 C 87.14 62.80 87.63 72.55 92.97 71.95 C 94.78 70.95 96.37 69.60 98.14 68.52 C 97.08 71.02 95.07 73.73 91.95 73.07 C 86.09 72.83 85.02 63.35 90.32 61.31 Z"
     id="path3378" />
  <path
     fill="#4f5833"
     d=" M 116.26 64.69 C 117.07 63.49 117.81 62.26 118.57 61.03 C 119.28 62.14 119.91 63.31 120.46 64.51 C 118.56 66.29 119.37 69.06 119.16 71.35 C 119.76 71.85 120.95 72.83 121.55 73.32 C 120.69 73.16 118.98 72.84 118.12 72.68 C 117.44 70.38 117.68 67.95 117.65 65.59 C 117.30 65.36 116.61 64.92 116.26 64.69 Z"
     id="path3380" />
  <path
     fill="#4f5833"
     d=" M 100.49 73.13 C 99.47 69.93 98.41 66.03 100.71 63.13 C 101.23 66.06 100.63 69.24 101.89 72.01 C 106.29 72.54 104.55 66.63 104.98 63.96 C 105.43 63.98 106.31 64.03 106.76 64.05 C 106.75 66.96 106.76 69.87 106.81 72.79 C 104.70 72.88 102.59 73.01 100.49 73.13 Z"
     id="path3382" />
  <path
     fill="#4f5833"
     d=" M 108.42 66.94 C 108.76 65.79 109.24 64.68 109.70 63.57 C 111.93 63.81 114.13 64.36 115.95 65.75 C 113.89 65.80 111.36 64.37 109.63 66.07 C 111.55 67.52 114.19 68.01 115.76 69.87 C 116.06 72.95 112.27 73.20 110.06 73.22 C 109.39 72.48 108.72 71.74 108.04 71.00 C 109.97 71.04 113.97 73.40 114.00 70.22 C 112.20 69.04 109.74 68.75 108.42 66.94 Z"
     id="path3384" />
  <path
     fill="#4f5833"
     d=" M 121.62 68.83 C 121.45 66.81 122.93 65.21 123.85 63.57 C 125.52 64.05 127.60 63.90 128.86 65.28 C 130.19 67.16 130.10 69.88 128.88 71.79 C 127.52 73.02 125.55 72.98 123.87 73.45 C 123.04 71.97 121.78 70.59 121.62 68.83 Z"
     id="path3386" />
  <path
     fill="#4f5833"
     d=" M 131.22 64.07 C 134.81 64.07 138.40 64.00 141.99 64.08 C 144.58 66.56 143.00 70.82 142.97 73.97 C 141.24 71.28 141.97 67.95 141.31 64.96 C 140.76 65.02 139.66 65.14 139.11 65.20 C 137.58 67.79 138.44 71.04 137.86 73.88 C 135.64 71.31 136.63 67.67 136.11 64.59 C 131.89 65.34 133.09 69.90 132.81 73.03 C 132.42 73.01 131.63 72.96 131.23 72.94 C 131.24 69.98 131.24 67.02 131.22 64.07 Z"
     id="path3388" />
  <path
     fill="#4f5833"
     d=" M 145.06 69.00 C 144.34 65.28 148.04 63.67 151.10 63.53 C 152.05 65.30 152.94 67.09 153.76 68.93 C 151.20 69.02 148.63 69.08 146.07 69.24 C 147.18 70.23 148.28 71.24 149.38 72.25 C 150.75 71.32 152.12 70.38 153.52 69.48 C 152.73 70.81 151.91 72.11 151.08 73.41 C 148.44 73.20 144.92 72.34 145.06 69.00 Z"
     id="path3390" />
  <path
     fill="#4f5833"
     d=" M 155.05 63.96 C 156.93 64.05 158.82 64.12 160.70 64.32 C 159.79 64.62 157.97 65.22 157.06 65.53 C 156.87 68.00 156.76 70.48 156.67 72.96 C 156.28 72.98 155.49 73.01 155.10 73.02 C 155.08 70.00 155.07 66.98 155.05 63.96 Z"
     id="path3392" />
  <path
     fill="#4f5833"
     d=" M 159.84 66.18 C 161.35 62.87 165.40 63.72 167.62 65.76 C 165.81 66.14 161.81 63.66 161.82 66.59 C 163.92 68.06 168.60 68.20 167.07 71.82 C 164.85 74.03 161.46 73.04 159.35 71.22 C 161.57 71.12 164.50 72.95 166.09 70.65 C 164.10 69.05 160.78 68.80 159.84 66.18 Z"
     id="path3394" />
  <path
     fill="#d6e815"
     d=" M 125.07 65.00 C 129.27 64.32 129.20 72.73 125.02 72.01 C 122.66 70.48 122.56 66.43 125.07 65.00 Z"
     id="path3396" />
  <path
     fill="#d6e815"
     d=" M 146.28 67.89 C 147.35 66.81 147.97 64.69 149.86 65.01 C 150.74 65.88 151.51 66.87 152.30 67.82 C 150.29 67.89 148.28 67.91 146.28 67.89 Z"
     id="path3398" />
  <path
     fill="#4e61d3"
     d=" M 311.23 77.41 C 314.98 71.45 321.99 67.97 328.99 68.13 C 357.34 68.10 385.69 68.15 414.04 68.11 C 418.82 68.12 423.83 67.81 428.32 69.81 C 435.79 72.97 440.87 80.83 440.68 88.96 C 440.68 110.26 440.71 131.57 440.66 152.87 C 454.09 158.25 467.49 163.71 480.92 169.12 C 487.15 171.74 493.58 173.92 499.58 177.07 C 500.48 175.03 501.39 173.00 502.33 170.98 C 507.86 179.63 513.55 188.19 519.27 196.72 C 509.08 198.15 498.92 199.74 488.75 201.25 C 490.11 198.20 491.47 195.15 492.83 192.11 C 472.89 184.75 453.39 176.24 433.60 168.49 C 431.52 167.38 429.47 168.96 427.49 169.53 C 424.50 170.79 421.23 171.06 418.02 171.02 C 388.01 170.95 358.00 171.07 327.99 170.96 C 317.32 171.06 307.84 161.59 307.93 150.92 C 307.80 130.96 307.94 111.00 307.86 91.04 C 307.75 86.31 308.50 81.39 311.23 77.41 Z"
     id="path3400" />
  <path
     fill="#4f5833"
     d=" M 337.41 102.67 C 335.66 100.41 338.62 97.66 340.96 97.93 C 343.35 97.46 344.84 99.57 346.34 101.02 C 343.67 100.08 339.57 97.20 337.96 101.18 C 340.32 102.53 343.00 103.21 345.30 104.65 C 347.43 107.40 343.90 110.76 340.99 110.07 C 338.29 110.23 336.91 107.72 336.06 105.58 C 338.34 107.81 342.58 111.12 344.84 106.96 C 343.06 104.49 339.53 104.64 337.41 102.67 Z"
     id="path3402" />
  <path
     fill="#4f5833"
     d=" M 358.75 110.94 C 357.03 106.59 357.06 101.42 358.74 97.06 C 359.41 101.65 359.41 106.34 358.75 110.94 Z"
     id="path3404" />
  <path
     fill="#4f5833"
     d=" M 385.23 98.17 C 386.01 98.07 387.55 97.88 388.32 97.78 C 387.38 98.79 386.42 99.77 385.53 100.82 C 388.20 101.09 390.89 101.17 393.58 101.15 C 389.07 102.30 390.55 107.08 389.80 110.49 C 387.49 108.41 389.82 104.58 387.73 102.33 C 387.37 102.22 386.65 102.00 386.29 101.88 C 385.63 104.83 385.73 107.87 385.35 110.85 C 384.21 107.79 384.19 104.47 383.52 101.30 C 384.10 100.26 384.66 99.22 385.23 98.17 Z"
     id="path3406" />
  <path
     fill="#4f5833"
     d=" M 347.26 103.94 C 348.83 101.42 352.68 99.46 354.95 102.25 C 355.44 104.76 355.37 107.33 355.50 109.88 C 352.79 109.72 347.32 111.24 347.66 106.83 C 348.80 104.30 352.39 104.55 354.55 103.31 C 352.24 101.21 349.63 102.95 347.26 103.94 Z"
     id="path3408" />
  <path
     fill="#4f5833"
     d=" M 365.00 110.05 C 359.65 110.29 359.64 100.79 364.97 100.94 C 367.86 100.62 368.67 103.84 369.61 105.87 C 367.00 105.99 364.38 106.10 361.78 106.28 C 362.97 107.26 364.14 108.28 365.27 109.33 C 366.65 108.40 368.03 107.48 369.46 106.62 C 368.22 108.02 367.30 110.51 365.00 110.05 Z"
     id="path3410" />
  <path
     fill="#4f5833"
     d=" M 370.55 104.46 C 369.40 103.13 370.83 101.70 372.00 101.05 C 374.03 100.44 375.79 101.76 377.49 102.65 C 375.59 102.48 373.70 102.23 371.80 102.15 C 371.24 104.48 374.28 104.46 375.63 105.47 C 377.58 105.74 377.96 108.43 376.21 109.31 C 374.08 111.06 371.43 109.48 369.43 108.37 C 371.65 108.23 374.51 109.84 376.18 107.74 C 374.40 106.49 372.36 105.67 370.55 104.46 Z"
     id="path3412" />
  <path
     fill="#4f5833"
     d=" M 396.34 101.30 C 399.82 99.51 403.22 103.65 401.93 106.98 C 401.43 110.35 396.38 111.19 394.70 108.31 C 393.55 106.07 393.71 102.43 396.34 101.30 Z"
     id="path3414" />
  <path
     fill="#4f5833"
     d=" M 404.30 111.01 C 403.72 107.72 403.77 104.37 403.81 101.04 C 406.62 101.15 409.43 101.26 412.24 101.22 C 413.30 101.30 415.15 100.92 415.46 102.37 C 416.00 104.88 415.80 107.48 415.87 110.03 C 415.51 109.99 414.77 109.91 414.41 109.87 C 414.36 107.27 414.40 104.65 414.00 102.08 C 409.33 101.10 410.89 107.09 410.61 109.85 C 410.20 109.90 409.39 110.00 408.98 110.05 C 408.93 107.25 408.88 104.45 408.74 101.66 C 404.03 102.20 405.89 107.83 404.30 111.01 Z"
     id="path3416" />
  <path
     fill="#4e61d3"
     d=" M 362.05 104.89 C 363.14 103.75 363.83 101.51 365.82 102.03 C 366.62 102.95 367.39 103.90 368.11 104.88 C 366.09 104.92 364.07 104.93 362.05 104.89 Z"
     id="path3418" />
  <path
     fill="#4e61d3"
     d=" M 397.14 102.00 C 401.79 100.96 401.79 110.02 397.15 109.03 C 395.07 107.28 394.95 103.71 397.14 102.00 Z"
     id="path3420" />
  <path
     fill="#4e61d3"
     d=" M 349.12 106.36 C 350.88 105.90 352.65 105.45 354.43 105.05 C 353.84 107.37 352.34 109.00 349.93 109.45 C 349.65 108.42 349.39 107.39 349.12 106.36 Z"
     id="path3422" />
  <path
     fill="#4f5833"
     d=" M 379.25 120.47 C 379.93 119.27 380.61 118.07 381.29 116.87 C 381.75 118.01 382.23 119.16 382.70 120.30 C 382.11 122.51 381.76 124.76 381.48 127.02 C 382.35 127.67 383.21 128.33 384.09 128.99 C 383.24 129.00 381.54 129.02 380.70 129.03 C 380.51 126.64 380.38 124.24 380.28 121.84 C 380.02 121.50 379.51 120.81 379.25 120.47 Z"
     id="path3424" />
  <path
     fill="#4f5833"
     d=" M 336.64 120.25 C 338.26 120.13 339.88 119.99 341.51 119.86 C 337.42 121.43 338.43 125.79 337.81 129.23 C 337.58 129.11 337.10 128.88 336.87 128.76 C 336.51 125.94 336.67 123.09 336.64 120.25 Z"
     id="path3426" />
  <path
     fill="#4f5833"
     d=" M 345.07 128.98 C 340.41 127.98 341.11 119.77 346.02 119.94 C 348.89 119.66 349.67 122.87 350.61 124.89 C 348.05 125.00 345.48 125.06 342.92 125.19 C 343.68 126.14 344.47 127.07 345.31 127.96 C 347.18 127.66 348.82 126.63 350.57 125.93 C 349.10 127.52 347.59 129.76 345.07 128.98 Z"
     id="path3428" />
  <path
     fill="#4f5833"
     d=" M 352.17 132.60 C 351.51 128.43 351.83 124.19 351.84 119.98 C 354.61 119.98 358.83 119.50 359.41 123.18 C 360.47 126.79 357.27 129.65 353.78 129.22 C 353.28 130.36 352.82 131.53 352.17 132.60 Z"
     id="path3430" />
  <path
     fill="#4f5833"
     d=" M 364.96 129.05 C 359.64 129.23 359.67 119.77 364.98 119.94 C 367.87 119.63 368.67 122.85 369.61 124.88 C 367.00 124.99 364.39 125.09 361.79 125.26 C 362.98 126.24 364.14 127.26 365.27 128.32 C 366.66 127.40 368.06 126.49 369.50 125.65 C 368.23 127.03 367.27 129.52 364.96 129.05 Z"
     id="path3432" />
  <path
     fill="#4f5833"
     d=" M 369.75 123.01 C 371.35 120.67 374.62 118.50 377.17 120.89 C 378.12 123.40 377.79 126.19 378.06 128.82 C 375.56 128.55 372.30 129.96 370.45 127.69 C 368.89 123.89 374.13 123.77 376.35 122.56 C 375.55 119.30 371.71 122.42 369.75 123.01 Z"
     id="path3434" />
  <path
     fill="#4e61d3"
     d=" M 345.20 120.38 C 346.64 121.38 347.98 122.51 349.22 123.76 C 347.27 123.88 345.33 123.97 343.40 124.02 C 343.99 122.80 344.59 121.59 345.20 120.38 Z"
     id="path3436" />
  <path
     fill="#4e61d3"
     d=" M 354.31 121.35 C 358.36 119.22 359.40 127.12 355.96 127.99 C 352.62 128.30 352.51 123.22 354.31 121.35 Z"
     id="path3438" />
  <path
     fill="#4e61d3"
     d=" M 362.01 123.87 C 363.13 122.75 363.86 120.55 365.84 121.04 C 366.65 121.95 367.41 122.90 368.14 123.88 C 366.09 123.92 364.05 123.91 362.01 123.87 Z"
     id="path3440" />
  <path
     fill="#4e61d3"
     d=" M 372.03 125.19 C 373.60 124.78 375.17 124.37 376.75 123.99 C 376.28 126.47 374.88 128.21 372.22 128.31 C 372.18 127.53 372.08 125.97 372.03 125.19 Z"
     id="path3442" />
  <path
     fill="#d6e815"
     d=" M 277.02 134.21 C 287.28 135.24 297.57 135.94 307.84 136.80 C 302.87 145.73 297.79 154.59 292.79 163.50 C 291.54 161.24 290.31 158.97 289.07 156.71 C 266.15 170.29 242.91 183.35 219.90 196.79 C 219.84 201.22 220.28 206.01 217.91 209.98 C 215.20 214.89 209.68 217.95 204.07 217.69 C 152.04 217.68 99.99 217.68 47.96 217.69 C 41.82 218.01 35.83 214.26 33.39 208.64 C 31.85 205.32 32.13 201.59 32.10 198.03 C 32.22 184.00 32.00 169.96 32.20 155.93 C 32.31 148.17 39.28 141.43 47.03 141.48 C 97.68 141.37 148.35 141.49 199.01 141.42 C 202.57 141.47 206.26 141.15 209.70 142.31 C 215.41 144.23 219.66 149.86 219.80 155.91 C 220.02 162.94 219.79 169.97 219.89 177.00 C 235.56 167.99 251.19 158.91 266.85 149.88 C 271.61 147.15 276.28 144.24 281.25 141.90 C 279.86 139.32 278.47 136.75 277.02 134.21 Z"
     id="path3444" />
  <path
     fill="#4f5833"
     d=" M 364.11 135.87 C 364.66 136.98 365.22 138.08 365.78 139.19 C 364.51 142.16 364.08 145.76 366.69 148.17 C 365.94 148.10 364.42 147.97 363.67 147.91 C 363.49 145.56 363.37 143.21 363.28 140.87 C 363.04 140.52 362.56 139.83 362.31 139.48 C 362.91 138.28 363.51 137.08 364.11 135.87 Z"
     id="path3446" />
  <path
     fill="#4f5833"
     d=" M 338.27 139.14 C 340.71 138.06 342.00 140.49 343.30 142.07 C 341.88 141.39 340.49 140.62 339.03 140.04 C 337.10 141.61 337.72 144.68 338.41 146.77 C 340.25 147.08 341.77 145.46 343.44 144.91 C 342.14 146.55 340.76 148.91 338.28 147.87 C 335.41 146.03 335.40 140.98 338.27 139.14 Z"
     id="path3448" />
  <path
     fill="#4f5833"
     d=" M 345.55 138.13 C 346.85 140.85 346.63 143.93 347.15 146.83 C 347.88 146.82 349.35 146.81 350.09 146.80 C 350.70 143.86 350.55 140.75 351.79 137.96 C 352.36 141.24 352.36 144.57 352.43 147.89 C 350.24 147.66 347.64 148.57 345.81 147.10 C 344.63 144.28 345.31 141.07 345.55 138.13 Z"
     id="path3450" />
  <path
     fill="#4f5833"
     d=" M 354.07 142.09 C 354.52 140.82 355.09 139.60 355.65 138.38 C 357.65 139.02 359.65 139.70 361.58 140.54 C 359.67 140.43 357.76 140.23 355.84 140.20 C 355.18 143.68 362.12 142.26 361.29 146.04 C 359.68 149.25 355.72 147.97 353.41 146.37 C 355.54 146.10 359.04 148.24 359.91 145.36 C 357.99 144.21 355.87 143.42 354.07 142.09 Z"
     id="path3452" />
  <path
     fill="#4f5833"
     d=" M 369.62 148.08 C 367.00 145.48 366.99 141.48 369.67 138.92 C 370.59 138.90 372.44 138.88 373.36 138.87 C 376.11 141.44 376.10 145.54 373.38 148.13 C 372.44 148.12 370.56 148.09 369.62 148.08 Z"
     id="path3454" />
  <path
     fill="#4f5833"
     d=" M 377.30 139.05 C 379.54 139.15 381.79 139.25 384.03 139.50 C 385.48 139.22 386.94 138.94 388.41 138.67 C 389.40 141.92 389.71 145.40 388.85 148.72 C 387.16 145.94 387.88 142.50 387.43 139.42 C 382.69 140.16 384.66 145.62 383.69 148.90 C 382.10 146.04 382.48 142.66 382.17 139.52 C 377.88 140.19 378.92 144.89 378.67 148.02 C 378.34 147.99 377.67 147.92 377.34 147.89 C 377.34 144.94 377.32 142.00 377.30 139.05 Z"
     id="path3456" />
  <path
     fill="#4f5833"
     d=" M 394.93 148.05 C 389.85 147.97 389.89 139.02 394.96 138.95 C 397.97 138.46 398.82 141.80 399.73 143.91 C 397.17 144.01 394.62 144.06 392.08 144.18 C 392.78 145.09 393.53 145.96 394.31 146.81 C 396.25 146.87 397.93 145.54 399.75 145.01 C 398.35 146.27 397.17 148.48 394.93 148.05 Z"
     id="path3458" />
  <path
     fill="#4f5833"
     d=" M 400.87 139.23 C 402.42 139.13 403.98 139.03 405.53 138.93 L 405.34 139.36 C 401.21 140.83 403.21 145.80 401.38 148.88 C 400.92 145.69 400.87 142.46 400.87 139.23 Z"
     id="path3460" />
  <path
     fill="#4f5833"
     d=" M 406.18 141.03 C 407.38 137.68 411.35 139.09 413.50 140.63 C 411.61 140.48 409.74 140.23 407.85 140.16 C 407.17 143.67 413.92 142.24 413.37 145.98 C 411.71 149.22 407.65 148.11 405.41 146.19 C 407.30 146.44 409.18 146.78 411.07 147.10 C 411.28 146.61 411.71 145.62 411.92 145.13 C 410.02 143.87 406.13 143.85 406.18 141.03 Z"
     id="path3462" />
  <path
     fill="#4e61d3"
     d=" M 370.09 140.35 C 374.72 137.84 375.65 147.61 371.06 146.99 C 368.51 146.09 368.65 142.21 370.09 140.35 Z"
     id="path3464" />
  <path
     fill="#4e61d3"
     d=" M 392.17 142.86 C 393.25 141.75 393.97 139.73 395.86 139.98 C 396.73 140.90 397.55 141.86 398.34 142.86 C 396.28 142.90 394.22 142.90 392.17 142.86 Z"
     id="path3466" />
  <path
     fill="#4f5833"
     d=" M 65.02 176.13 C 65.42 174.78 66.64 174.07 67.72 173.31 C 69.61 177.72 71.57 182.11 72.95 186.71 C 71.12 185.73 70.21 183.88 69.33 182.11 C 67.75 182.07 66.17 182.06 64.59 182.05 C 63.69 183.84 62.69 185.62 60.96 186.74 C 62.05 183.11 63.47 179.58 65.02 176.13 Z"
     id="path3468" />
  <path
     fill="#4f5833"
     d=" M 99.29 174.21 C 103.62 173.72 107.98 174.08 112.32 174.03 L 112.15 174.94 C 110.07 174.95 107.99 175.01 105.91 175.05 C 105.91 178.70 105.91 182.35 105.92 186.00 C 105.50 185.99 104.66 185.97 104.23 185.96 C 104.25 182.45 104.25 178.94 104.25 175.43 C 102.58 175.08 100.92 174.73 99.29 174.21 Z"
     id="path3470" />
  <path
     fill="#4f5833"
     d=" M 122.78 174.00 L 124.35 174.00 C 124.34 176.06 124.33 178.13 124.30 180.20 C 126.10 178.74 127.96 177.31 130.13 176.43 C 129.06 177.77 127.93 179.06 126.78 180.33 C 128.01 182.41 129.21 184.50 130.22 186.70 C 128.15 185.37 126.57 183.48 124.87 181.73 C 124.53 183.14 124.29 184.58 124.04 186.01 L 122.78 186.01 C 122.77 182.01 122.77 178.00 122.78 174.00 Z"
     id="path3472" />
  <path
     fill="#4f5833"
     d=" M 140.33 177.16 C 140.93 176.02 141.53 174.89 142.14 173.76 C 142.67 174.96 143.20 176.18 143.74 177.38 C 141.92 180.34 142.70 183.89 144.39 186.70 C 143.69 186.36 142.30 185.67 141.60 185.33 C 140.99 182.64 140.84 179.87 140.33 177.16 Z"
     id="path3474" />
  <path
     fill="#4f5833"
     d=" M 150.97 178.74 C 150.13 176.76 151.83 175.23 152.73 173.66 C 155.77 173.61 158.80 174.38 160.19 177.36 C 158.70 176.73 157.33 175.89 156.03 174.96 C 154.18 174.98 152.75 175.95 151.68 177.37 C 154.18 178.58 157.16 178.98 159.31 180.78 C 161.29 183.47 157.80 186.76 154.98 186.07 C 152.17 186.44 150.76 183.66 149.60 181.65 C 151.91 182.82 153.90 185.63 156.78 184.88 C 157.66 184.14 158.14 183.19 158.22 182.03 C 155.86 180.80 153.18 180.26 150.97 178.74 Z"
     id="path3476" />
  <path
     fill="#4f5833"
     d=" M 162.38 174.38 C 162.64 174.64 162.64 174.64 162.38 174.38 Z"
     id="path3478" />
  <path
     fill="#d6e815"
     d=" M 66.85 175.73 C 67.61 177.46 68.36 179.19 69.10 180.93 C 67.70 180.96 66.31 180.98 64.91 181.00 C 65.55 179.24 66.20 177.48 66.85 175.73 Z"
     id="path3480" />
  <path
     fill="#4f5833"
     d=" M 72.66 176.12 C 74.82 178.06 75.60 180.91 76.60 183.53 C 77.54 180.93 78.32 178.13 80.42 176.16 C 79.52 179.65 79.15 183.95 76.23 186.41 C 74.46 183.21 73.32 179.70 72.66 176.12 Z"
     id="path3482" />
  <path
     fill="#4f5833"
     d=" M 82.24 184.64 C 80.62 182.29 81.04 178.07 84.05 177.10 C 85.76 176.90 87.48 176.93 89.20 176.88 C 89.16 181.09 90.01 185.76 87.27 189.37 C 84.98 189.18 82.65 188.82 80.87 187.22 C 83.42 187.56 86.22 188.46 88.31 186.37 C 86.33 185.88 83.62 186.57 82.24 184.64 Z"
     id="path3484" />
  <path
     fill="#4f5833"
     d=" M 110.84 177.41 C 111.12 177.19 111.70 176.75 111.99 176.54 C 112.40 179.82 112.39 183.15 111.99 186.44 C 109.30 184.59 110.90 180.25 110.84 177.41 Z"
     id="path3486" />
  <path
     fill="#4f5833"
     d=" M 115.73 176.89 C 116.56 176.91 118.21 176.96 119.03 176.99 C 119.67 178.07 120.30 179.16 120.93 180.26 C 119.41 179.53 118.07 178.14 116.29 178.18 C 115.64 180.28 115.43 182.60 116.33 184.67 C 118.08 185.29 119.58 183.26 121.19 182.74 C 120.48 183.83 119.76 184.92 119.04 186.01 C 118.22 186.04 116.57 186.09 115.75 186.11 C 113.47 183.33 113.47 179.68 115.73 176.89 Z"
     id="path3488" />
  <path
     fill="#4f5833"
     d=" M 131.65 184.38 C 129.70 181.68 131.28 176.69 135.01 176.94 C 137.98 176.49 138.78 179.85 139.61 181.94 C 137.04 182.01 134.48 182.07 131.92 182.21 C 133.04 183.20 134.14 184.22 135.22 185.26 C 136.60 184.32 137.98 183.37 139.40 182.48 C 138.60 183.79 137.78 185.08 136.96 186.37 C 135.15 185.94 132.78 186.16 131.65 184.38 Z"
     id="path3490" />
  <path
     fill="#4f5833"
     d=" M 161.61 185.95 C 162.16 182.94 160.28 178.64 162.97 176.52 C 163.34 179.51 163.24 182.53 163.31 185.53 C 163.84 185.28 164.90 184.79 165.43 184.54 C 166.80 182.26 168.43 180.15 170.06 178.05 C 168.35 178.03 166.65 178.01 164.95 178.00 L 164.85 177.00 C 167.46 177.00 170.07 177.00 172.69 177.00 C 170.76 179.71 168.70 182.32 166.62 184.90 C 168.83 184.94 171.05 184.95 173.26 185.20 C 169.58 186.80 165.48 185.71 161.61 185.95 Z"
     id="path3492" />
  <path
     fill="#4f5833"
     d=" M 173.42 181.02 C 173.48 179.36 174.85 178.20 175.72 176.91 C 176.64 176.91 178.50 176.91 179.42 176.90 C 180.45 178.51 181.40 180.16 182.31 181.84 C 179.70 182.03 177.09 182.09 174.48 182.27 C 175.29 183.21 176.09 184.16 177.01 185.01 C 178.78 184.41 180.43 183.51 182.18 182.83 C 180.72 185.07 178.49 186.35 175.81 186.48 C 174.76 184.80 173.09 183.18 173.42 181.02 Z"
     id="path3494" />
  <path
     fill="#d6e815"
     d=" M 84.29 178.13 C 88.10 177.04 88.80 183.52 85.94 185.00 C 82.47 185.38 82.24 179.98 84.29 178.13 Z"
     id="path3496" />
  <path
     fill="#d6e815"
     d=" M 132.14 180.89 C 133.23 179.81 133.85 177.54 135.79 178.06 C 136.58 178.96 137.33 179.90 138.04 180.88 C 136.07 180.92 134.11 180.93 132.14 180.89 Z"
     id="path3498" />
  <path
     fill="#d6e815"
     d=" M 174.52 180.78 C 175.70 179.76 176.56 177.16 178.50 178.29 C 179.22 179.12 179.91 179.99 180.55 180.89 C 178.54 180.91 176.53 180.87 174.52 180.78 Z"
     id="path3500" />
  <path
     fill="#4f5833"
     d=" M 91.96 185.10 C 94.95 183.54 92.14 188.40 91.96 185.10 Z"
     id="path3502" />
  <path
     fill="#d6e815"
     d=" M 32.18 269.90 C 32.24 261.78 39.92 255.03 47.93 255.45 C 97.95 255.42 147.98 255.46 198.00 255.43 C 202.36 255.50 206.98 254.95 211.06 256.86 C 216.08 259.15 219.65 264.33 219.80 269.88 C 220.01 278.28 219.80 286.68 219.87 295.08 C 238.62 302.61 257.32 310.24 276.07 317.77 C 279.73 319.20 283.40 320.65 286.78 322.68 C 287.76 320.37 288.77 318.09 289.77 315.81 C 295.58 324.29 301.03 333.02 306.88 341.49 C 296.66 342.82 286.50 344.58 276.29 345.94 C 277.57 343.14 278.84 340.33 280.13 337.53 C 276.71 336.52 273.39 335.23 270.10 333.87 C 253.43 327.09 236.71 320.42 220.04 313.64 C 219.81 317.36 219.75 321.36 217.55 324.57 C 214.76 329.15 209.45 331.91 204.10 331.69 C 152.06 331.68 100.03 331.68 47.99 331.69 C 42.38 331.96 36.81 328.92 34.10 323.98 C 32.11 320.68 32.06 316.72 32.10 312.99 C 32.21 298.63 32.02 284.26 32.18 269.90 Z"
     id="path3504" />
  <path
     fill="#4e61d3"
     d=" M 478.44 272.54 C 488.68 273.52 498.95 274.30 509.21 275.10 C 504.16 284.03 499.16 293.00 494.11 301.94 C 492.89 299.61 491.67 297.29 490.46 294.96 C 473.80 304.47 457.18 314.06 440.61 323.73 C 440.77 344.82 440.65 365.90 440.68 386.99 C 440.89 393.95 437.51 400.95 431.64 404.78 C 427.69 407.56 422.76 408.43 418.01 408.33 C 388.03 408.25 358.04 408.38 328.07 408.27 C 320.02 408.27 312.44 402.97 309.42 395.57 C 307.76 391.61 307.84 387.22 307.86 383.01 C 307.95 364.02 307.81 345.02 307.91 326.03 C 307.88 319.30 311.27 312.60 316.94 308.92 C 320.73 306.29 325.42 305.35 329.97 305.42 C 359.99 305.47 390.01 305.41 420.03 305.46 C 424.26 305.39 428.26 306.94 431.95 308.88 C 448.74 299.15 465.55 289.46 482.37 279.77 C 481.08 277.35 479.78 274.93 478.44 272.54 Z"
     id="path3506" />
  <path
     fill="#4f5833"
     d=" M 64.00 290.98 C 61.38 287.12 62.82 281.99 62.95 277.63 C 66.69 279.50 68.05 283.98 70.62 287.08 C 70.62 283.72 70.61 280.36 71.01 277.02 C 73.58 280.73 72.10 285.66 72.23 289.88 C 71.93 289.95 71.33 290.07 71.03 290.14 C 68.36 287.42 66.55 284.02 64.38 280.94 C 64.38 284.28 64.39 287.64 64.00 290.98 Z"
     id="path3508" />
  <path
     fill="#4f5833"
     d=" M 98.23 278.07 C 98.65 278.04 99.48 277.99 99.90 277.97 C 99.91 278.70 99.92 280.16 99.92 280.89 C 101.22 280.91 102.52 280.98 103.81 281.12 C 106.43 282.66 106.97 286.67 104.92 288.88 C 103.23 290.78 100.44 289.77 98.22 290.02 C 98.25 286.03 98.25 282.05 98.23 278.07 Z"
     id="path3510" />
  <path
     fill="#4f5833"
     d=" M 135.85 281.56 C 137.44 279.68 138.94 277.33 141.81 277.67 C 140.79 278.59 139.74 279.50 138.71 280.41 C 139.41 280.74 140.82 281.41 141.52 281.74 C 140.92 281.86 139.70 282.09 139.09 282.20 C 139.12 285.10 139.10 287.99 138.80 290.88 C 136.71 288.59 137.61 285.35 137.48 282.57 C 137.08 282.32 136.26 281.81 135.85 281.56 Z"
     id="path3512" />
  <path
     fill="#4f5833"
     d=" M 146.81 288.00 C 146.60 284.40 146.76 280.78 146.97 277.18 C 150.39 279.74 152.35 283.62 154.73 287.06 C 154.75 283.74 154.74 280.42 155.03 277.12 C 158.12 280.85 156.02 286.29 156.37 290.72 C 152.93 288.46 151.20 284.56 148.70 281.43 C 148.59 284.54 148.56 287.66 148.31 290.77 C 147.53 290.01 146.65 289.22 146.81 288.00 Z"
     id="path3514" />
  <path
     fill="#4f5833"
     d=" M 75.03 288.83 C 74.33 285.97 74.14 282.67 75.79 280.09 C 76.28 283.03 75.88 286.16 76.96 289.00 C 81.38 289.67 79.73 283.66 80.18 281.00 C 80.61 281.00 81.47 281.00 81.90 281.00 C 81.91 283.96 81.93 286.92 81.97 289.89 C 79.69 289.60 76.64 291.02 75.03 288.83 Z"
     id="path3516" />
  <path
     fill="#4f5833"
     d=" M 83.88 280.91 C 86.18 280.99 88.49 281.08 90.76 281.44 C 92.26 281.16 93.76 280.91 95.27 280.68 C 96.16 284.01 96.33 287.49 95.82 290.90 C 93.83 288.38 94.68 285.01 94.01 282.09 C 93.50 282.07 92.47 282.03 91.95 282.01 C 90.32 284.31 91.10 287.36 90.82 290.00 C 90.40 290.00 89.57 290.00 89.15 290.00 C 89.09 287.22 88.98 284.44 88.76 281.67 C 83.91 282.33 86.74 288.06 84.23 290.89 C 83.84 287.58 83.87 284.24 83.88 280.91 Z"
     id="path3518" />
  <path
     fill="#4f5833"
     d=" M 109.85 290.49 C 107.04 287.84 106.56 283.51 109.71 280.91 C 110.64 280.91 112.50 280.89 113.43 280.89 C 114.44 282.51 115.38 284.18 116.27 285.87 C 113.68 286.03 111.08 286.08 108.49 286.24 C 109.29 287.19 110.09 288.16 110.99 289.03 C 112.76 288.41 114.42 287.50 116.15 286.79 C 114.73 289.05 112.53 290.35 109.85 290.49 Z"
     id="path3520" />
  <path
     fill="#4f5833"
     d=" M 117.04 281.07 C 118.89 281.03 120.75 280.98 122.61 280.99 C 121.41 281.58 120.21 282.15 119.01 282.71 C 118.85 285.13 118.75 287.56 118.67 289.99 C 118.28 290.00 117.49 290.00 117.10 290.01 C 117.09 287.03 117.07 284.05 117.04 281.07 Z"
     id="path3522" />
  <path
     fill="#4f5833"
     d=" M 127.69 281.83 C 129.47 281.37 131.27 280.96 133.09 280.60 C 135.86 283.44 135.84 287.61 133.07 290.45 C 131.39 289.99 129.42 290.05 128.08 288.81 C 126.57 286.76 127.48 284.12 127.69 281.83 Z"
     id="path3524" />
  <path
     fill="#4f5833"
     d=" M 158.42 285.06 C 158.54 283.25 160.01 281.95 160.89 280.49 C 162.94 280.91 165.10 281.38 166.18 283.42 C 166.89 282.43 167.55 281.40 168.25 280.41 C 169.10 282.70 169.88 285.03 170.65 287.36 C 171.30 284.85 171.83 282.19 173.61 280.19 C 174.40 282.51 175.03 284.89 175.61 287.28 C 176.49 284.77 177.27 282.12 179.16 280.16 C 178.12 283.47 178.42 288.38 175.14 290.31 C 174.33 288.26 173.82 286.11 173.22 284.00 C 172.22 286.12 172.48 289.40 169.99 290.39 C 169.17 288.43 168.69 286.35 168.23 284.29 C 167.86 284.13 167.12 283.81 166.75 283.65 C 166.85 287.70 161.95 285.48 159.47 286.25 C 160.28 287.19 161.08 288.16 162.00 289.02 C 163.77 288.40 165.41 287.49 167.14 286.78 C 165.74 289.09 163.49 290.36 160.79 290.47 C 159.76 288.80 158.12 287.19 158.42 285.06 Z"
     id="path3526" />
  <path
     fill="#d6e815"
     d=" M 101.29 282.09 C 105.04 281.26 105.34 287.16 103.00 289.00 C 99.30 289.77 98.75 283.82 101.29 282.09 Z"
     id="path3528" />
  <path
     fill="#d6e815"
     d=" M 108.51 284.78 C 109.34 283.82 110.15 282.83 111.09 281.97 C 112.90 281.82 113.53 283.82 114.56 284.89 C 112.54 284.91 110.52 284.87 108.51 284.78 Z"
     id="path3530" />
  <path
     fill="#d6e815"
     d=" M 130.27 282.11 C 134.12 281.00 134.95 287.63 131.87 289.00 C 128.34 289.46 127.92 283.83 130.27 282.11 Z"
     id="path3532" />
  <path
     fill="#d6e815"
     d=" M 159.53 284.79 C 160.71 283.77 161.56 281.16 163.50 282.29 C 164.23 283.12 164.91 283.98 165.55 284.89 C 163.54 284.91 161.53 284.88 159.53 284.79 Z"
     id="path3534" />
  <path
     fill="#4f5833"
     d=" M 84.82 297.87 C 86.38 296.93 88.27 296.97 90.01 296.64 C 91.12 297.93 92.23 299.22 93.29 300.54 C 91.21 299.73 89.35 298.05 87.05 298.00 C 83.18 299.71 83.18 306.23 87.01 307.99 C 89.69 308.20 91.42 305.59 93.62 304.51 C 92.63 306.81 90.92 309.56 87.96 309.08 C 82.26 309.46 80.51 300.75 84.82 297.87 Z"
     id="path3536" />
  <path
     fill="#4f5833"
     d=" M 112.36 300.28 C 112.91 299.06 113.46 297.85 114.02 296.63 C 114.60 297.88 115.17 299.12 115.76 300.37 C 113.87 303.31 114.78 306.84 116.32 309.70 C 111.77 308.86 113.42 303.56 112.36 300.28 Z"
     id="path3538" />
  <path
     fill="#4f5833"
     d=" M 95.01 299.98 C 95.43 300.00 96.27 300.05 96.69 300.07 C 96.74 302.66 96.68 305.29 97.16 307.86 C 97.84 307.84 99.19 307.82 99.87 307.80 C 100.90 305.35 100.50 302.63 100.87 300.06 C 101.21 300.02 101.90 299.95 102.24 299.92 C 102.48 302.97 102.35 306.04 102.28 309.10 C 100.03 308.78 97.11 309.82 95.48 307.78 C 94.92 305.22 95.08 302.58 95.01 299.98 Z"
     id="path3540" />
  <path
     fill="#4f5833"
     d=" M 103.69 303.06 C 103.81 300.21 106.73 299.85 108.95 299.66 C 109.65 300.43 110.36 301.20 111.07 301.97 C 109.06 301.74 106.73 300.41 104.97 302.10 C 106.98 303.86 112.60 304.03 110.83 307.73 C 108.75 310.14 105.24 308.99 103.15 307.25 C 105.43 307.27 108.07 308.62 110.05 306.81 C 108.00 305.42 105.69 304.50 103.69 303.06 Z"
     id="path3542" />
  <path
     fill="#4f5833"
     d=" M 117.70 300.81 C 119.49 300.36 121.29 299.96 123.10 299.61 C 123.88 301.02 125.08 302.30 125.27 303.97 C 125.62 306.10 124.04 307.76 123.06 309.45 C 121.39 308.99 119.43 309.05 118.08 307.82 C 116.56 305.76 117.48 303.11 117.70 300.81 Z"
     id="path3544" />
  <path
     fill="#4f5833"
     d=" M 126.88 299.92 C 129.17 299.99 131.47 300.08 133.74 300.43 C 135.25 300.16 136.77 299.91 138.29 299.69 C 139.15 303.02 139.32 306.49 138.82 309.90 C 136.75 307.25 137.56 303.69 137.11 300.60 C 132.70 301.05 134.16 305.97 133.82 309.00 C 133.40 309.00 132.57 309.00 132.15 309.00 C 132.08 306.22 131.98 303.45 131.76 300.68 C 126.92 301.33 129.74 307.08 127.24 309.90 C 126.84 306.58 126.87 303.25 126.88 299.92 Z"
     id="path3546" />
  <path
     fill="#4f5833"
     d=" M 141.62 307.34 C 139.71 304.64 141.30 299.70 145.01 299.94 C 147.96 299.48 148.78 302.84 149.61 304.93 C 147.04 305.01 144.47 305.08 141.91 305.23 C 143.03 306.21 144.14 307.22 145.22 308.26 C 146.61 307.31 147.98 306.37 149.40 305.47 C 148.60 306.78 147.78 308.07 146.95 309.37 C 145.13 308.94 142.74 309.16 141.62 307.34 Z"
     id="path3548" />
  <path
     fill="#4f5833"
     d=" M 150.88 300.04 C 152.59 300.02 154.31 300.00 156.03 299.97 C 154.96 300.66 153.94 301.39 152.95 302.18 C 152.37 304.75 152.94 307.65 151.24 309.88 C 150.84 306.61 150.87 303.32 150.88 300.04 Z"
     id="path3550" />
  <path
     fill="#4f5833"
     d=" M 154.93 301.98 C 157.37 299.62 160.90 299.34 163.43 301.70 C 161.16 301.52 158.84 301.11 156.62 301.89 C 158.60 303.73 163.53 303.64 163.18 307.02 C 161.67 310.26 157.31 309.21 155.15 307.24 C 157.45 307.31 160.03 308.58 162.04 306.85 C 159.64 305.27 156.95 304.09 154.93 301.98 Z"
     id="path3552" />
  <path
     fill="#d6e815"
     d=" M 120.29 301.10 C 124.12 300.06 124.91 306.54 121.92 308.00 C 118.35 308.50 117.89 302.80 120.29 301.10 Z"
     id="path3554" />
  <path
     fill="#d6e815"
     d=" M 142.14 303.89 C 143.24 302.83 143.85 300.51 145.78 301.06 C 146.57 301.97 147.32 302.91 148.03 303.89 C 146.07 303.93 144.10 303.92 142.14 303.89 Z"
     id="path3556" />
  <path
     fill="#4f5833"
     d=" M 333.21 336.68 C 331.51 334.26 334.59 331.56 337.03 331.94 C 339.44 331.51 340.92 333.59 341.85 335.47 C 340.65 334.64 339.47 333.79 338.31 332.93 C 336.32 332.94 334.67 333.76 333.65 335.48 C 336.19 336.54 338.98 337.14 341.28 338.73 C 343.08 341.50 339.81 344.63 336.97 344.07 C 334.18 344.35 332.93 341.63 331.74 339.67 C 334.18 341.61 338.39 345.20 340.60 340.97 C 338.96 338.40 335.35 338.65 333.21 336.68 Z"
     id="path3558" />
  <path
     fill="#4f5833"
     d=" M 353.20 331.97 C 353.57 332.02 354.32 332.11 354.69 332.16 C 354.64 336.07 354.64 339.99 354.68 343.91 C 354.30 343.92 353.56 343.96 353.18 343.97 C 353.20 339.97 353.20 335.97 353.20 331.97 Z"
     id="path3560" />
  <path
     fill="#4f5833"
     d=" M 381.09 331.98 C 381.91 331.99 383.54 331.99 384.36 332.00 C 383.09 332.86 381.84 333.73 380.60 334.62 C 383.43 335.00 386.29 335.14 389.15 335.07 L 388.96 335.35 C 384.73 336.56 386.53 341.64 385.50 344.84 C 384.04 342.19 385.21 338.89 383.71 336.34 C 383.31 336.21 382.52 335.96 382.12 335.84 C 381.14 338.76 381.81 342.01 380.47 344.85 C 380.06 341.65 379.86 338.42 379.24 335.25 C 379.85 334.16 380.47 333.07 381.09 331.98 Z"
     id="path3562" />
  <path
     fill="#4f5833"
     d=" M 343.34 338.10 C 344.20 336.93 345.07 335.77 345.93 334.60 C 347.52 335.12 349.69 334.83 350.78 336.34 C 351.54 338.98 351.16 341.79 351.20 344.51 C 350.34 343.67 349.48 342.86 348.66 342.00 C 349.38 340.95 349.60 339.85 349.32 338.71 C 349.45 338.13 349.71 336.96 349.85 336.38 C 347.47 335.87 345.32 336.90 343.34 338.10 Z"
     id="path3564" />
  <path
     fill="#4f5833"
     d=" M 356.65 338.96 C 356.57 336.27 359.43 334.37 361.95 335.02 C 363.88 335.88 364.40 338.14 365.36 339.82 C 362.75 339.99 360.14 340.09 357.55 340.31 C 358.66 341.32 359.82 342.31 361.04 343.21 C 362.39 342.26 363.82 341.36 365.47 341.03 C 363.79 343.01 361.48 344.10 358.96 344.53 C 358.00 342.78 356.41 341.10 356.65 338.96 Z"
     id="path3566" />
  <path
     fill="#4f5833"
     d=" M 365.72 337.08 C 366.77 335.22 368.94 335.04 370.81 334.63 C 371.54 335.37 372.28 336.11 373.03 336.85 C 370.87 336.43 368.66 336.12 366.52 336.85 C 368.61 338.06 370.86 338.97 372.87 340.32 C 373.99 341.99 372.33 343.23 370.98 343.95 C 368.88 344.55 367.00 343.28 365.22 342.39 C 367.19 341.93 371.63 344.49 371.46 341.21 C 369.57 339.82 366.50 339.60 365.72 337.08 Z"
     id="path3568" />
  <path
     fill="#4f5833"
     d=" M 389.83 337.96 C 390.24 335.40 393.27 335.23 395.18 334.37 C 396.49 336.28 398.34 338.30 397.60 340.82 C 397.34 343.70 394.03 343.89 391.88 344.52 C 390.78 342.52 389.08 340.40 389.83 337.96 Z"
     id="path3570" />
  <path
     fill="#4f5833"
     d=" M 399.46 335.15 C 403.15 335.55 407.14 334.68 410.65 335.65 C 412.26 338.26 411.78 342.13 410.40 344.87 C 409.97 341.81 409.85 338.72 409.66 335.65 C 409.02 335.90 407.74 336.40 407.09 336.65 C 405.46 338.89 407.35 342.56 405.11 344.57 C 404.65 341.72 404.72 338.82 404.27 335.97 C 403.71 336.02 402.59 336.11 402.03 336.16 C 400.63 338.80 401.12 341.99 400.47 344.85 C 399.15 341.78 399.48 338.39 399.46 335.15 Z"
     id="path3572" />
  <path
     fill="#4e61d3"
     d=" M 357.67 338.86 C 358.87 337.84 359.62 335.17 361.61 336.23 C 362.40 337.06 363.14 337.93 363.84 338.85 C 361.78 338.89 359.72 338.89 357.67 338.86 Z"
     id="path3574" />
  <path
     fill="#4e61d3"
     d=" M 393.19 336.02 C 397.32 335.19 397.33 343.86 393.14 342.93 C 390.51 342.05 390.44 336.93 393.19 336.02 Z"
     id="path3576" />
  <path
     fill="#4f5833"
     d=" M 343.56 341.17 C 343.24 339.40 345.42 338.70 346.81 339.25 C 346.36 339.77 345.44 340.82 344.98 341.34 C 346.26 342.30 347.58 343.23 348.78 344.31 C 347.00 344.07 343.10 344.00 343.56 341.17 Z"
     id="path3578" />
  <path
     fill="#4f5833"
     d=" M 334.34 351.13 C 336.05 350.97 337.76 351.13 339.47 351.23 C 337.49 351.78 335.50 352.30 333.52 352.85 C 334.17 353.21 335.47 353.93 336.13 354.29 C 332.95 356.39 334.78 360.80 333.84 363.93 C 332.43 361.34 332.81 358.34 332.81 355.52 C 332.44 355.27 331.70 354.77 331.34 354.52 C 332.32 353.37 333.24 352.16 334.34 351.13 Z"
     id="path3580" />
  <path
     fill="#4f5833"
     d=" M 356.30 350.60 C 358.05 353.95 357.11 357.62 356.53 361.13 C 357.17 361.56 358.44 362.40 359.07 362.82 C 357.99 362.92 356.91 363.03 355.84 363.14 C 355.51 360.21 355.15 357.29 354.58 354.40 C 355.14 353.13 355.71 351.86 356.30 350.60 Z"
     id="path3582" />
  <path
     fill="#4f5833"
     d=" M 364.55 354.60 C 365.32 353.32 366.07 352.04 366.84 350.77 C 366.94 351.53 367.16 353.04 367.27 353.79 C 367.59 353.87 368.24 354.02 368.57 354.09 C 366.81 356.12 367.20 358.88 367.11 361.36 C 367.69 361.89 368.84 362.94 369.41 363.47 C 368.22 363.11 367.06 362.69 365.92 362.21 C 365.59 360.03 365.70 357.81 365.68 355.62 C 365.40 355.36 364.83 354.85 364.55 354.60 Z"
     id="path3584" />
  <path
     fill="#4f5833"
     d=" M 370.22 351.11 C 373.16 349.51 370.42 354.43 370.22 351.11 Z"
     id="path3586" />
  <path
     fill="#4f5833"
     d=" M 337.18 354.02 C 337.55 354.05 338.30 354.10 338.68 354.13 C 338.66 357.03 338.66 359.94 338.68 362.84 C 338.31 362.89 337.57 362.98 337.20 363.02 C 337.20 360.02 337.19 357.02 337.18 354.02 Z"
     id="path3588" />
  <path
     fill="#4f5833"
     d=" M 340.87 354.23 C 342.52 354.12 344.18 354.00 345.84 353.87 C 341.44 355.53 343.08 360.44 341.41 363.88 C 340.93 360.69 340.87 357.45 340.87 354.23 Z"
     id="path3590" />
  <path
     fill="#4f5833"
     d=" M 345.30 356.93 C 346.18 355.95 347.03 354.93 348.04 354.07 C 350.06 353.43 351.82 354.79 353.52 355.66 C 351.63 355.49 349.75 355.23 347.86 355.15 C 347.14 358.68 354.01 357.24 353.37 361.02 C 352.32 362.96 349.92 362.88 348.07 363.38 C 347.29 362.58 346.51 361.78 345.73 360.98 C 347.50 361.38 349.28 361.77 351.07 362.15 C 351.28 361.65 351.70 360.65 351.91 360.15 C 349.68 359.12 347.47 358.08 345.30 356.93 Z"
     id="path3592" />
  <path
     fill="#4f5833"
     d=" M 370.59 353.14 C 372.22 356.45 372.27 360.54 370.56 363.84 C 370.07 360.29 370.07 356.68 370.59 353.14 Z"
     id="path3594" />
  <path
     fill="#4f5833"
     d=" M 374.30 364.00 C 373.70 360.68 373.77 357.30 373.82 353.96 C 376.01 354.09 378.20 354.21 380.40 354.41 C 382.01 354.37 383.98 353.35 385.23 354.84 C 386.19 357.41 385.71 360.28 385.89 362.98 C 385.51 362.96 384.76 362.93 384.39 362.92 C 384.34 360.11 384.26 357.31 384.10 354.51 C 382.96 354.95 381.87 355.48 380.84 356.12 C 380.56 358.35 380.62 360.60 380.61 362.85 C 380.20 362.90 379.38 362.99 378.96 363.03 C 378.93 360.24 378.88 357.45 378.74 354.66 C 374.02 355.18 375.90 360.82 374.30 364.00 Z"
     id="path3596" />
  <path
     fill="#4f5833"
     d=" M 387.79 356.97 C 388.26 354.44 391.27 354.22 393.19 353.35 C 394.29 355.15 395.35 356.98 396.36 358.83 C 393.75 358.99 391.14 359.09 388.54 359.30 C 389.69 360.30 390.86 361.30 392.04 362.28 C 393.41 361.37 394.81 360.48 396.24 359.66 C 394.98 360.89 394.07 363.21 392.00 363.06 C 388.76 363.43 386.87 359.74 387.79 356.97 Z"
     id="path3598" />
  <path
     fill="#4e61d3"
     d=" M 388.67 357.86 C 389.85 356.82 390.62 354.17 392.62 355.22 C 393.39 356.07 394.12 356.95 394.81 357.87 C 392.76 357.90 390.72 357.90 388.67 357.86 Z"
     id="path3600" />
  <path
     fill="#4f5833"
     d=" M 359.62 358.27 C 360.67 357.43 362.46 357.44 363.53 358.28 C 363.43 359.78 359.73 359.75 359.62 358.27 Z"
     id="path3602" />
  <path
     fill="#4f5833"
     d=" M 358.11 373.47 C 358.80 372.27 359.49 371.09 360.19 369.90 C 360.75 371.19 361.32 372.47 361.90 373.76 C 361.57 374.01 360.90 374.51 360.57 374.77 C 360.60 376.50 360.64 378.25 360.68 379.99 C 361.18 380.61 362.19 381.84 362.69 382.46 C 358.23 382.65 359.36 377.78 359.09 374.92 C 358.85 374.56 358.36 373.83 358.11 373.47 Z"
     id="path3604" />
  <path
     fill="#d6e815"
     d=" M 32.19 386.04 C 32.35 377.96 39.94 371.06 48.00 371.62 C 100.34 371.66 152.68 371.58 205.01 371.66 C 212.65 371.54 219.56 378.26 219.78 385.88 C 220.03 395.33 219.78 404.80 219.88 414.26 C 238.39 403.64 256.87 392.95 275.35 382.28 C 277.25 381.19 279.22 380.22 281.20 379.29 C 279.88 376.70 278.53 374.13 277.17 371.58 C 287.39 372.49 297.62 373.23 307.85 374.06 C 302.84 383.01 297.77 391.93 292.75 400.88 C 291.52 398.55 290.28 396.23 289.04 393.91 C 271.71 404.43 253.97 414.26 236.48 424.51 C 231.03 427.55 225.81 431.01 220.10 433.55 C 219.30 436.65 218.52 439.93 216.36 442.42 C 213.41 446.08 208.70 448.04 204.03 447.89 C 153.01 447.83 101.99 447.83 50.97 447.90 C 47.04 447.88 42.80 447.95 39.39 445.68 C 34.70 442.89 31.98 437.45 32.13 432.05 C 32.16 416.72 32.03 401.38 32.19 386.04 Z"
     id="path3606" />
  <path
     fill="#4f5833"
     d=" M 334.17 373.05 C 336.54 372.24 337.86 374.45 339.18 375.95 C 337.54 375.28 335.93 374.52 334.24 374.00 C 333.48 376.25 333.42 378.70 334.24 380.95 C 336.05 380.65 337.63 379.66 339.28 378.92 C 337.97 380.51 336.66 382.78 334.21 381.96 C 331.24 380.05 331.24 375.00 334.17 373.05 Z"
     id="path3608" />
  <path
     fill="#4f5833"
     d=" M 341.29 372.11 C 342.83 374.96 342.56 378.28 342.89 381.40 C 343.96 380.70 346.39 380.88 346.32 379.10 C 346.59 376.81 346.66 374.50 346.90 372.22 C 349.11 374.99 347.99 378.76 348.17 382.02 C 345.98 381.59 342.95 382.75 341.41 380.75 C 340.57 377.94 340.98 374.96 341.29 372.11 Z"
     id="path3610" />
  <path
     fill="#4f5833"
     d=" M 349.17 375.91 C 350.09 374.91 350.97 373.87 352.03 373.01 C 353.98 372.60 355.69 373.77 357.37 374.55 C 355.31 374.76 352.61 373.33 351.08 375.18 C 353.20 376.46 355.62 377.29 357.50 378.97 C 356.57 383.05 351.81 382.42 349.23 380.40 C 351.20 379.94 355.66 382.49 355.47 379.20 C 353.44 377.97 351.26 377.02 349.17 375.91 Z"
     id="path3612" />
  <path
     fill="#4f5833"
     d=" M 365.33 373.39 C 367.88 371.84 371.31 374.08 371.25 377.00 C 371.67 379.51 369.73 382.40 366.99 382.05 C 362.69 382.06 361.81 375.19 365.33 373.39 Z"
     id="path3614" />
  <path
     fill="#4f5833"
     d=" M 372.87 373.13 C 376.54 373.28 380.21 373.16 383.88 373.27 C 385.98 375.98 384.87 379.75 384.73 382.87 C 383.16 380.17 383.61 376.93 383.11 373.97 C 382.40 374.07 381.00 374.28 380.29 374.38 C 379.70 376.86 379.76 379.43 379.70 381.97 C 379.35 381.97 378.64 381.99 378.29 381.99 C 378.23 379.33 378.25 376.64 377.83 374.01 C 376.44 373.72 374.68 374.31 374.79 376.01 C 374.44 378.31 374.35 380.71 373.39 382.87 C 372.91 379.65 372.87 376.38 372.87 373.13 Z"
     id="path3616" />
  <path
     fill="#4f5833"
     d=" M 390.01 382.00 C 385.49 381.41 385.45 373.59 390.01 373.02 C 393.14 372.12 394.30 375.66 395.33 377.83 C 392.71 377.99 390.09 378.11 387.48 378.33 C 388.66 379.30 389.84 380.28 391.03 381.25 C 392.42 380.37 393.82 379.51 395.26 378.71 C 393.87 380.25 392.50 382.76 390.01 382.00 Z"
     id="path3618" />
  <path
     fill="#4f5833"
     d=" M 396.62 373.15 C 398.28 373.12 399.95 373.08 401.61 373.06 C 396.49 374.12 399.57 379.67 397.06 382.52 C 396.55 379.42 396.65 376.27 396.62 373.15 Z"
     id="path3620" />
  <path
     fill="#4f5833"
     d=" M 401.86 375.10 C 403.25 371.75 407.10 373.06 409.36 374.64 C 407.24 374.70 404.76 373.54 402.94 375.07 C 405.07 376.37 407.44 377.28 409.40 378.86 C 408.76 380.14 408.02 381.36 407.29 382.59 C 405.21 382.00 403.16 381.34 401.21 380.43 C 403.20 379.95 407.51 382.45 407.51 379.23 C 405.70 377.80 402.39 377.71 401.86 375.10 Z"
     id="path3622" />
  <path
     fill="#4e61d3"
     d=" M 366.14 374.01 C 370.16 372.98 371.08 379.58 367.91 380.96 C 364.25 381.64 363.86 375.89 366.14 374.01 Z"
     id="path3624" />
  <path
     fill="#4e61d3"
     d=" M 387.66 376.85 C 388.87 375.87 389.60 373.23 391.57 374.18 C 392.37 375.03 393.12 375.92 393.83 376.86 C 391.77 376.90 389.71 376.90 387.66 376.85 Z"
     id="path3626" />
  <path
     fill="#4f5833"
     d=" M 65.06 409.04 C 65.47 407.73 66.68 407.06 67.71 406.30 C 69.61 410.71 71.57 415.11 72.95 419.72 C 71.11 418.73 70.19 416.87 69.30 415.09 C 67.74 415.06 66.17 415.04 64.61 415.05 C 63.70 416.83 62.68 418.61 60.96 419.74 C 62.06 416.08 63.49 412.52 65.06 409.04 Z"
     id="path3628" />
  <path
     fill="#4f5833"
     d=" M 100.18 407.00 C 104.17 406.98 108.16 407.00 112.15 407.02 L 112.31 407.94 C 110.18 407.95 108.05 408.01 105.91 408.05 C 105.91 411.71 105.91 415.37 105.91 419.03 C 105.49 419.00 104.64 418.94 104.22 418.90 C 104.25 415.27 104.25 411.64 104.25 408.01 C 102.90 408.00 101.55 407.99 100.20 407.99 L 100.18 407.00 Z"
     id="path3630" />
  <path
     fill="#4f5833"
     d=" M 122.78 407.00 L 124.35 407.00 C 124.34 409.08 124.33 411.15 124.30 413.23 C 126.09 411.75 127.95 410.30 130.13 409.43 C 129.06 410.77 127.93 412.05 126.78 413.33 C 128.01 415.40 129.21 417.49 130.22 419.69 C 128.08 418.29 126.37 416.39 124.60 414.58 C 124.48 416.05 124.36 417.52 124.26 419.00 L 122.78 419.00 C 122.77 415.00 122.77 411.00 122.78 407.00 Z"
     id="path3632" />
  <path
     fill="#4f5833"
     d=" M 140.33 410.27 C 140.92 409.09 141.51 407.92 142.11 406.75 C 142.65 407.95 143.20 409.14 143.75 410.34 C 141.99 413.33 142.64 416.86 144.39 419.70 C 139.73 418.97 141.48 413.54 140.33 410.27 Z"
     id="path3634" />
  <path
     fill="#4f5833"
     d=" M 159.03 407.09 C 162.03 405.55 159.18 410.40 159.03 407.09 Z"
     id="path3636" />
  <path
     fill="#d6e815"
     d=" M 64.89 413.99 C 65.56 412.21 66.24 410.43 66.93 408.66 C 67.65 410.41 68.35 412.18 69.05 413.95 C 67.66 413.96 66.28 413.98 64.89 413.99 Z"
     id="path3638" />
  <path
     fill="#4f5833"
     d=" M 72.66 409.12 C 74.83 411.02 75.56 413.87 76.51 416.47 C 77.51 413.89 78.38 411.15 80.41 409.17 C 79.54 412.68 79.11 416.91 76.25 419.43 C 74.47 416.23 73.32 412.71 72.66 409.12 Z"
     id="path3640" />
  <path
     fill="#4f5833"
     d=" M 82.29 417.70 C 80.61 415.36 81.02 411.15 84.01 410.10 C 85.73 409.90 87.47 409.94 89.21 409.90 C 89.16 414.11 90.01 418.76 87.26 422.37 C 84.97 422.17 82.65 421.81 80.87 420.22 C 83.43 420.56 86.24 421.47 88.32 419.37 C 86.36 418.86 83.69 419.57 82.29 417.70 Z"
     id="path3642" />
  <path
     fill="#4f5833"
     d=" M 110.85 410.41 C 111.12 410.19 111.67 409.73 111.94 409.50 C 112.40 412.80 112.41 416.16 111.98 419.46 C 109.34 417.54 110.88 413.26 110.85 410.41 Z"
     id="path3644" />
  <path
     fill="#4f5833"
     d=" M 115.74 409.89 C 116.57 409.91 118.21 409.97 119.04 409.99 C 119.68 411.08 120.31 412.17 120.93 413.28 C 119.38 412.88 116.86 409.49 116.13 412.17 C 115.28 414.01 115.88 416.09 116.34 417.96 C 118.13 417.68 119.59 416.52 121.18 415.73 C 120.47 416.82 119.76 417.91 119.05 419.01 C 118.22 419.03 116.57 419.09 115.74 419.11 C 113.46 416.32 113.47 412.67 115.74 409.89 Z"
     id="path3646" />
  <path
     fill="#4f5833"
     d=" M 131.61 417.32 C 129.75 414.65 131.26 409.78 134.92 409.95 C 137.93 409.42 138.80 412.81 139.60 414.95 C 137.08 415.02 134.56 415.04 132.04 415.15 C 132.77 416.12 133.54 417.07 134.35 417.99 C 136.20 417.62 137.78 416.50 139.47 415.73 C 138.61 416.94 137.73 418.14 136.85 419.35 C 135.05 418.94 132.70 419.12 131.61 417.32 Z"
     id="path3648" />
  <path
     fill="#4f5833"
     d=" M 149.70 413.05 C 150.06 408.82 155.18 409.51 157.45 411.75 C 155.37 411.83 152.84 410.38 151.12 412.09 C 153.11 413.36 155.24 414.38 157.25 415.62 C 158.32 413.50 159.15 411.27 160.21 409.16 C 160.57 412.31 160.83 415.53 160.37 418.70 C 160.13 418.85 159.64 419.15 159.39 419.30 C 159.20 418.61 158.83 417.21 158.65 416.51 C 158.06 416.72 156.89 417.15 156.30 417.36 L 156.71 418.65 C 154.04 419.27 151.25 419.22 149.15 417.24 C 151.42 417.24 154.09 418.66 156.04 416.81 C 153.99 415.43 151.69 414.49 149.70 413.05 Z"
     id="path3650" />
  <path
     fill="#4f5833"
     d=" M 161.14 410.70 C 163.91 409.62 166.91 410.00 169.80 410.03 C 167.90 412.72 165.86 415.32 163.81 417.91 C 166.02 417.94 168.24 417.94 170.45 418.21 C 167.58 419.56 164.36 418.91 161.31 418.98 C 163.14 416.28 165.16 413.71 167.19 411.15 C 165.17 411.07 163.14 410.98 161.14 410.70 Z"
     id="path3652" />
  <path
     fill="#4f5833"
     d=" M 172.98 409.53 C 174.39 409.90 175.91 410.04 177.23 410.74 C 178.24 411.94 178.71 413.49 179.37 414.90 C 176.77 415.02 174.17 415.07 171.58 415.27 C 172.69 416.25 173.80 417.23 174.93 418.18 C 176.36 417.27 177.80 416.37 179.29 415.55 C 178.05 418.14 175.68 419.45 172.83 419.40 C 171.89 417.75 170.38 416.14 170.59 414.10 C 170.73 412.32 172.11 410.99 172.98 409.53 Z"
     id="path3654" />
  <path
     fill="#d6e815"
     d=" M 84.34 411.06 C 88.16 410.16 88.80 416.67 85.86 418.00 C 82.40 418.27 82.30 412.90 84.34 411.06 Z"
     id="path3656" />
  <path
     fill="#d6e815"
     d=" M 132.14 413.89 C 133.23 412.81 133.85 410.52 135.79 411.06 C 136.58 411.97 137.32 412.91 138.03 413.89 C 136.07 413.92 134.10 413.92 132.14 413.89 Z"
     id="path3658" />
  <path
     fill="#d6e815"
     d=" M 171.74 413.86 C 172.90 412.86 173.61 410.24 175.55 411.20 C 176.31 412.05 177.03 412.94 177.70 413.87 C 175.71 413.90 173.73 413.90 171.74 413.86 Z"
     id="path3660" />
  <path
     fill="#4f5833"
     d=" M 91.96 418.10 C 94.95 416.53 92.16 421.40 91.96 418.10 Z"
     id="path3662" />
</svg>
