<svg width="640" height="480" xmlns="http://www.w3.org/2000/svg">
 <metadata id="metadata3668">image/svg+xml</metadata>

 
  <rect fill="none" id="canvas_background" height="402" width="582" y="-1" x="-1"/>
 
  <title>Layer 1</title>
  <path id="path3340" d="m40.04,19.98c4.26,-2.39 9.28,-1.81 13.96,-1.87c47.99,0.03 95.98,0.02 143.97,0c4.24,0.11 8.7,-0.51 12.71,1.22c5.35,2.24 9.08,7.77 9.14,13.57c0.17,8.31 -0.02,16.62 0.07,24.92c18.85,7.55 37.64,15.23 56.48,22.8c3.55,1.39 7.09,2.83 10.48,4.6c0.95,-2.23 1.91,-4.44 2.89,-6.66c5.87,8.39 11.32,17.06 17.01,25.57c-10.2,1.56 -20.4,3.03 -30.58,4.7c1.35,-2.8 2.63,-5.63 3.92,-8.45c-20.15,-7.68 -40.03,-16.09 -60.06,-24.07c-0.1,4.47 -0.58,9.4 -3.86,12.78c-2.92,3.6 -7.49,5.53 -12.09,5.35c-49.02,-0.01 -98.04,-0.01 -147.05,-0.01c-4.01,-0.04 -8.05,0.23 -12.04,-0.24c-7.26,-0.89 -13.05,-7.82 -12.84,-15.11c-0.06,-15.04 -0.02,-30.09 -0.02,-45.13c-0.18,-5.66 2.86,-11.31 7.91,-13.97z" fill="#d6e815"/>
  <path id="path3342" d="m63.78,42.03c0.29,-0.02 0.89,-0.07 1.19,-0.09c2.7,2.66 4.45,6.1 6.65,9.15c0,-3.36 -0.01,-6.73 0.38,-10.07c2.56,3.83 1.29,8.99 0.99,13.32c-3.72,-1.82 -5.07,-6.32 -7.62,-9.4c0.01,3.35 0.02,6.71 -0.37,10.05c-2.6,-3.73 -1.09,-8.71 -1.22,-12.96z" fill="#4f5833"/>
  <path id="path3344" d="m99.23,42.07c0.41,-0.02 1.25,-0.07 1.66,-0.1c0.01,0.68 0.04,2.04 0.05,2.72c3.68,-0.57 7.34,2.36 6.04,6.28c-0.79,3.67 -4.91,3.14 -7.76,3.04c0.03,-3.98 0.03,-7.96 0.01,-11.94z" fill="#4f5833"/>
  <path id="path3346" d="m136.84,45.52c1.61,-1.89 3.17,-4.19 6.05,-3.84c-1.06,0.91 -2.14,1.79 -3.21,2.68c0.71,0.36 2.14,1.06 2.85,1.42c-0.61,0.1 -1.83,0.3 -2.44,0.41c0.03,2.89 0.01,5.8 -0.29,8.68c-2.1,-2.27 -1.18,-5.51 -1.32,-8.29c-0.41,-0.27 -1.23,-0.8 -1.64,-1.06z" fill="#4f5833"/>
  <path id="path3348" d="m147.81,54.01c-0.02,-4.1 -0.26,-8.23 0.18,-12.32c0.36,0.15 1.06,0.44 1.42,0.59c0.35,3.56 0.11,7.15 0.13,10.72c1.91,0 3.82,0 5.74,0l0.13,1.01c-2.54,-0.01 -5.07,-0.01 -7.6,0z" fill="#4f5833"/>
  <path id="path3350" d="m184.35,48.03c0.05,-2.36 -0.23,-4.97 1.42,-6.91c0.5,4.57 0.5,9.19 0,13.76c-1.65,-1.91 -1.37,-4.51 -1.42,-6.85z" fill="#4f5833"/>
  <path id="path3352" d="m76.03,52.8c-0.72,-2.85 -0.88,-6.14 0.75,-8.72c0.52,2.95 0.07,6.09 1.19,8.91c4.41,0.73 2.75,-5.34 3.21,-7.99c0.43,0 1.29,0 1.72,0c0.01,2.96 0.03,5.93 0.07,8.89c-2.27,-0.31 -5.41,1.18 -6.94,-1.09z" fill="#4f5833"/>
  <path id="path3354" d="m84.88,44.92c2.3,0.07 4.59,0.16 6.86,0.51c1.52,-0.27 3.03,-0.51 4.56,-0.74c0.86,3.33 1.02,6.8 0.53,10.2c-2.02,-2.5 -1.14,-5.89 -1.83,-8.82c-0.51,-0.01 -1.53,-0.04 -2.04,-0.05c-1.66,2.27 -0.85,5.35 -1.14,7.98c-0.41,0 -1.24,0 -1.66,0c-0.08,-2.79 -0.2,-5.58 -0.44,-8.36c-4.77,0.78 -2,6.41 -4.48,9.24c-0.4,-3.31 -0.37,-6.64 -0.36,-9.96z" fill="#4f5833"/>
  <path id="path3356" d="m108.42,48.95c0.1,-1.61 1.42,-2.75 2.26,-4.03c0.93,-0.01 2.78,-0.02 3.71,-0.03c1.05,1.61 2.02,3.26 2.96,4.94c-2.62,0.2 -5.24,0.26 -7.86,0.43c0.81,0.95 1.61,1.9 2.51,2.76c1.78,-0.61 3.43,-1.51 5.16,-2.21c-1.43,2.26 -3.65,3.54 -6.33,3.67c-1.07,-1.69 -2.77,-3.34 -2.41,-5.53z" fill="#4f5833"/>
  <path id="path3358" d="m118.04,45.08c1.85,-0.05 3.7,-0.1 5.56,-0.09c-1.19,0.59 -2.39,1.17 -3.6,1.73c-0.16,2.41 -0.24,4.81 -0.31,7.22c-0.4,0.02 -1.19,0.07 -1.59,0.09c-0.01,-2.99 -0.03,-5.97 -0.06,-8.95z" fill="#4f5833"/>
  <path id="path3360" d="m128.7,45.82c1.79,-0.45 3.58,-0.86 5.39,-1.22c2.77,2.85 2.74,6.98 0.02,9.84c-1.69,-0.45 -3.68,-0.36 -5.03,-1.63c-1.53,-2.05 -0.6,-4.69 -0.38,-6.99z" fill="#4f5833"/>
  <path id="path3362" d="m158.62,54.09c-2.7,-2.59 -2.71,-6.6 0.02,-9.18c0.95,-0.01 2.85,-0.02 3.8,-0.03c2.73,2.62 2.77,6.68 -0.04,9.25c-0.95,-0.01 -2.84,-0.03 -3.78,-0.04z" fill="#4f5833"/>
  <path id="path3364" d="m165.2,44.29c2.52,1.56 3.29,4.51 4.4,7.05c0.99,-2.52 1.89,-5.17 3.8,-7.17c-0.71,4.47 -2.5,8.67 -4.38,12.76c-0.74,0.04 -2.24,0.14 -2.99,0.19c0.96,-0.97 1.95,-1.9 2.81,-2.95c-1.05,-3.35 -2.67,-6.49 -3.64,-9.88z" fill="#4f5833"/>
  <path id="path3366" d="m174.28,48.24c0.83,-1.22 1.69,-2.42 2.55,-3.61c1.69,0.43 3.88,0.04 5.05,1.63c0.68,2.79 0.31,5.69 0.25,8.53c-1.63,-1.46 -3.34,-3.42 -1.09,-5.31c-0.55,-0.54 -1.1,-1.07 -1.64,-1.62l2.08,-0.93c-2.56,-1.49 -5,-0.09 -7.2,1.31z" fill="#4f5833"/>
  <path id="path3368" d="m102.29,46.12c4.42,-1.3 4.18,8.19 -0.17,6.81c-1.83,-1.81 -1.92,-5.15 0.17,-6.81z" fill="#d6e815"/>
  <path id="path3370" d="m109.53,48.78c1.17,-1.02 2.01,-3.58 3.94,-2.52c0.74,0.84 1.43,1.72 2.08,2.63c-2.01,0.02 -4.02,-0.01 -6.02,-0.11z" fill="#d6e815"/>
  <path id="path3372" d="m131.23,46.13c3.85,-1.18 4.73,5.44 1.69,6.84c-3.53,0.61 -4.03,-5.1 -1.69,-6.84z" fill="#d6e815"/>
  <path id="path3374" d="m159.31,46.52c4.19,-2.7 5.33,7.1 0.73,6.49c-2.32,-1.09 -2.63,-4.9 -0.73,-6.49z" fill="#d6e815"/>
  <path id="path3376" d="m175.22,49.46c0.89,-0.27 2.69,-0.82 3.58,-1.09c-0.86,1.09 -1.79,2.11 -2.81,3.06c1.29,0.91 2.61,1.78 3.82,2.8c-2.87,1.03 -7.16,-1.85 -4.59,-4.77z" fill="#4f5833"/>
  <path id="path3378" d="m90.32,61.31c3.03,-1.44 5.99,0.57 7.58,3.11c-1.97,-0.77 -3.78,-1.97 -5.86,-2.44c-4.9,0.82 -4.41,10.57 0.93,9.97c1.81,-1 3.4,-2.35 5.17,-3.43c-1.06,2.5 -3.07,5.21 -6.19,4.55c-5.86,-0.24 -6.93,-9.72 -1.63,-11.76z" fill="#4f5833"/>
  <path id="path3380" d="m116.26,64.69c0.81,-1.2 1.55,-2.43 2.31,-3.66c0.71,1.11 1.34,2.28 1.89,3.48c-1.9,1.78 -1.09,4.55 -1.3,6.84c0.6,0.5 1.79,1.48 2.39,1.97c-0.86,-0.16 -2.57,-0.48 -3.43,-0.64c-0.68,-2.3 -0.44,-4.73 -0.47,-7.09c-0.35,-0.23 -1.04,-0.67 -1.39,-0.9z" fill="#4f5833"/>
  <path id="path3382" d="m100.49,73.13c-1.02,-3.2 -2.08,-7.1 0.22,-10c0.52,2.93 -0.08,6.11 1.18,8.88c4.4,0.53 2.66,-5.38 3.09,-8.05c0.45,0.02 1.33,0.07 1.78,0.09c-0.01,2.91 0,5.82 0.05,8.74c-2.11,0.09 -4.22,0.22 -6.32,0.34z" fill="#4f5833"/>
  <path id="path3384" d="m108.42,66.94c0.34,-1.15 0.82,-2.26 1.28,-3.37c2.23,0.24 4.43,0.79 6.25,2.18c-2.06,0.05 -4.59,-1.38 -6.32,0.32c1.92,1.45 4.56,1.94 6.13,3.8c0.3,3.08 -3.49,3.33 -5.7,3.35c-0.67,-0.74 -1.34,-1.48 -2.02,-2.22c1.93,0.04 5.93,2.4 5.96,-0.78c-1.8,-1.18 -4.26,-1.47 -5.58,-3.28z" fill="#4f5833"/>
  <path id="path3386" d="m121.62,68.83c-0.17,-2.02 1.31,-3.62 2.23,-5.26c1.67,0.48 3.75,0.33 5.01,1.71c1.33,1.88 1.24,4.6 0.02,6.51c-1.36,1.23 -3.33,1.19 -5.01,1.66c-0.83,-1.48 -2.09,-2.86 -2.25,-4.62z" fill="#4f5833"/>
  <path id="path3388" d="m131.22,64.07c3.59,0 7.18,-0.07 10.77,0.01c2.59,2.48 1.01,6.74 0.98,9.89c-1.73,-2.69 -1,-6.02 -1.66,-9.01c-0.55,0.06 -1.65,0.18 -2.2,0.24c-1.53,2.59 -0.67,5.84 -1.25,8.68c-2.22,-2.57 -1.23,-6.21 -1.75,-9.29c-4.22,0.75 -3.02,5.31 -3.3,8.44c-0.39,-0.02 -1.18,-0.07 -1.58,-0.09c0.01,-2.96 0.01,-5.92 -0.01,-8.87z" fill="#4f5833"/>
  <path id="path3390" d="m145.06,69c-0.72,-3.72 2.98,-5.33 6.04,-5.47c0.95,1.77 1.84,3.56 2.66,5.4c-2.56,0.09 -5.13,0.15 -7.69,0.31c1.11,0.99 2.21,2 3.31,3.01c1.37,-0.93 2.74,-1.87 4.14,-2.77c-0.79,1.33 -1.61,2.63 -2.44,3.93c-2.64,-0.21 -6.16,-1.07 -6.02,-4.41z" fill="#4f5833"/>
  <path id="path3392" d="m155.05,63.96c1.88,0.09 3.77,0.16 5.65,0.36c-0.91,0.3 -2.73,0.9 -3.64,1.21c-0.19,2.47 -0.3,4.95 -0.39,7.43c-0.39,0.02 -1.18,0.05 -1.57,0.06c-0.02,-3.02 -0.03,-6.04 -0.05,-9.06z" fill="#4f5833"/>
  <path id="path3394" d="m159.84,66.18c1.51,-3.31 5.56,-2.46 7.78,-0.42c-1.81,0.38 -5.81,-2.1 -5.8,0.83c2.1,1.47 6.78,1.61 5.25,5.23c-2.22,2.21 -5.61,1.22 -7.72,-0.6c2.22,-0.1 5.15,1.73 6.74,-0.57c-1.99,-1.6 -5.31,-1.85 -6.25,-4.47z" fill="#4f5833"/>
  <path id="path3396" d="m125.07,65c4.2,-0.68 4.13,7.73 -0.05,7.01c-2.36,-1.53 -2.46,-5.58 0.05,-7.01z" fill="#d6e815"/>
  <path id="path3398" d="m146.28,67.89c1.07,-1.08 1.69,-3.2 3.58,-2.88c0.88,0.87 1.65,1.86 2.44,2.81c-2.01,0.07 -4.02,0.09 -6.02,0.07z" fill="#d6e815"/>
  <path id="path3400" d="m311.23,77.41c3.75,-5.96 10.76,-9.44 17.76,-9.28c28.35,-0.03 56.7,0.02 85.05,-0.02c4.78,0.01 9.79,-0.3 14.28,1.7c7.47,3.16 12.55,11.02 12.36,19.15c0,21.3 0.03,42.61 -0.02,63.91c13.43,5.38 26.83,10.84 40.26,16.25c6.23,2.62 12.66,4.8 18.66,7.95c0.9,-2.04 1.81,-4.07 2.75,-6.09c5.53,8.65 11.22,17.21 16.94,25.74c-10.19,1.43 -20.35,3.02 -30.52,4.53c1.36,-3.05 2.72,-6.1 4.08,-9.14c-19.94,-7.36 -39.44,-15.87 -59.23,-23.62c-2.08,-1.11 -4.13,0.47 -6.11,1.04c-2.99,1.26 -6.26,1.53 -9.47,1.49c-30.01,-0.07 -60.02,0.05 -90.03,-0.06c-10.67,0.1 -20.15,-9.37 -20.06,-20.04c-0.13,-19.96 0.01,-39.92 -0.07,-59.88c-0.11,-4.73 0.64,-9.65 3.37,-13.63z" fill="#4e61d3"/>
  <path id="path3402" d="m337.41,102.67c-1.75,-2.26 1.21,-5.01 3.55,-4.74c2.39,-0.47 3.88,1.64 5.38,3.09c-2.67,-0.94 -6.77,-3.82 -8.38,0.16c2.36,1.35 5.04,2.03 7.34,3.47c2.13,2.75 -1.4,6.11 -4.31,5.42c-2.7,0.16 -4.08,-2.35 -4.93,-4.49c2.28,2.23 6.52,5.54 8.78,1.38c-1.78,-2.47 -5.31,-2.32 -7.43,-4.29z" fill="#4f5833"/>
  <path id="path3404" d="m358.75,110.94c-1.72,-4.35 -1.69,-9.52 -0.01,-13.88c0.67,4.59 0.67,9.28 0.01,13.88z" fill="#4f5833"/>
  <path id="path3406" d="m385.23,98.17c0.78,-0.1 2.32,-0.29 3.09,-0.39c-0.94,1.01 -1.9,1.99 -2.79,3.04c2.67,0.27 5.36,0.35 8.05,0.33c-4.51,1.15 -3.03,5.93 -3.78,9.34c-2.31,-2.08 0.02,-5.91 -2.07,-8.16c-0.36,-0.11 -1.08,-0.33 -1.44,-0.45c-0.66,2.95 -0.56,5.99 -0.94,8.97c-1.14,-3.06 -1.16,-6.38 -1.83,-9.55c0.58,-1.04 1.14,-2.08 1.71,-3.13z" fill="#4f5833"/>
  <path id="path3408" d="m347.26,103.94c1.57,-2.52 5.42,-4.48 7.69,-1.69c0.49,2.51 0.42,5.08 0.55,7.63c-2.71,-0.16 -8.18,1.36 -7.84,-3.05c1.14,-2.53 4.73,-2.28 6.89,-3.52c-2.31,-2.1 -4.92,-0.36 -7.29,0.63z" fill="#4f5833"/>
  <path id="path3410" d="m365,110.05c-5.35,0.24 -5.36,-9.26 -0.03,-9.11c2.89,-0.32 3.7,2.9 4.64,4.93c-2.61,0.12 -5.23,0.23 -7.83,0.41c1.19,0.98 2.36,2 3.49,3.05c1.38,-0.93 2.76,-1.85 4.19,-2.71c-1.24,1.4 -2.16,3.89 -4.46,3.43z" fill="#4f5833"/>
  <path id="path3412" d="m370.55,104.46c-1.15,-1.33 0.28,-2.76 1.45,-3.41c2.03,-0.61 3.79,0.71 5.49,1.6c-1.9,-0.17 -3.79,-0.42 -5.69,-0.5c-0.56,2.33 2.48,2.31 3.83,3.32c1.95,0.27 2.33,2.96 0.58,3.84c-2.13,1.75 -4.78,0.17 -6.78,-0.94c2.22,-0.14 5.08,1.47 6.75,-0.63c-1.78,-1.25 -3.82,-2.07 -5.63,-3.28z" fill="#4f5833"/>
  <path id="path3414" d="m396.34,101.3c3.48,-1.79 6.88,2.35 5.59,5.68c-0.5,3.37 -5.55,4.21 -7.23,1.33c-1.15,-2.24 -0.99,-5.88 1.64,-7.01z" fill="#4f5833"/>
  <path id="path3416" d="m404.3,111.01c-0.58,-3.29 -0.53,-6.64 -0.49,-9.97c2.81,0.11 5.62,0.22 8.43,0.18c1.06,0.08 2.91,-0.3 3.22,1.15c0.54,2.51 0.34,5.11 0.41,7.66c-0.36,-0.04 -1.1,-0.12 -1.46,-0.16c-0.05,-2.6 -0.01,-5.22 -0.41,-7.79c-4.67,-0.98 -3.11,5.01 -3.39,7.77c-0.41,0.05 -1.22,0.15 -1.63,0.2c-0.05,-2.8 -0.1,-5.6 -0.24,-8.39c-4.71,0.54 -2.85,6.17 -4.44,9.35z" fill="#4f5833"/>
  <path id="path3418" d="m362.05,104.89c1.09,-1.14 1.78,-3.38 3.77,-2.86c0.8,0.92 1.57,1.87 2.29,2.85c-2.02,0.04 -4.04,0.05 -6.06,0.01z" fill="#4e61d3"/>
  <path id="path3420" d="m397.14,102c4.65,-1.04 4.65,8.02 0.01,7.03c-2.08,-1.75 -2.2,-5.32 -0.01,-7.03z" fill="#4e61d3"/>
  <path id="path3422" d="m349.12,106.36c1.76,-0.46 3.53,-0.91 5.31,-1.31c-0.59,2.32 -2.09,3.95 -4.5,4.4c-0.28,-1.03 -0.54,-2.06 -0.81,-3.09z" fill="#4e61d3"/>
  <path id="path3424" d="m379.25,120.47c0.68,-1.2 1.36,-2.4 2.04,-3.6c0.46,1.14 0.94,2.29 1.41,3.43c-0.59,2.21 -0.94,4.46 -1.22,6.72c0.87,0.65 1.73,1.31 2.61,1.97c-0.85,0.01 -2.55,0.03 -3.39,0.04c-0.19,-2.39 -0.32,-4.79 -0.42,-7.19c-0.26,-0.34 -0.77,-1.03 -1.03,-1.37z" fill="#4f5833"/>
  <path id="path3426" d="m336.64,120.25c1.62,-0.12 3.24,-0.26 4.87,-0.39c-4.09,1.57 -3.08,5.93 -3.7,9.37c-0.23,-0.12 -0.71,-0.35 -0.94,-0.47c-0.36,-2.82 -0.2,-5.67 -0.23,-8.51z" fill="#4f5833"/>
  <path id="path3428" d="m345.07,128.98c-4.66,-1 -3.96,-9.21 0.95,-9.04c2.87,-0.28 3.65,2.93 4.59,4.95c-2.56,0.11 -5.13,0.17 -7.69,0.3c0.76,0.95 1.55,1.88 2.39,2.77c1.87,-0.3 3.51,-1.33 5.26,-2.03c-1.47,1.59 -2.98,3.83 -5.5,3.05z" fill="#4f5833"/>
  <path id="path3430" d="m352.17,132.6c-0.66,-4.17 -0.34,-8.41 -0.33,-12.62c2.77,0 6.99,-0.48 7.57,3.2c1.06,3.61 -2.14,6.47 -5.63,6.04c-0.5,1.14 -0.96,2.31 -1.61,3.38z" fill="#4f5833"/>
  <path id="path3432" d="m364.96,129.05c-5.32,0.18 -5.29,-9.28 0.02,-9.11c2.89,-0.31 3.69,2.91 4.63,4.94c-2.61,0.11 -5.22,0.21 -7.82,0.38c1.19,0.98 2.35,2 3.48,3.06c1.39,-0.92 2.79,-1.83 4.23,-2.67c-1.27,1.38 -2.23,3.87 -4.54,3.4z" fill="#4f5833"/>
  <path id="path3434" d="m369.75,123.01c1.6,-2.34 4.87,-4.51 7.42,-2.12c0.95,2.51 0.62,5.3 0.89,7.93c-2.5,-0.27 -5.76,1.14 -7.61,-1.13c-1.56,-3.8 3.68,-3.92 5.9,-5.13c-0.8,-3.26 -4.64,-0.14 -6.6,0.45z" fill="#4f5833"/>
  <path id="path3436" d="m345.2,120.38c1.44,1 2.78,2.13 4.02,3.38c-1.95,0.12 -3.89,0.21 -5.82,0.26c0.59,-1.22 1.19,-2.43 1.8,-3.64z" fill="#4e61d3"/>
  <path id="path3438" d="m354.31,121.35c4.05,-2.13 5.09,5.77 1.65,6.64c-3.34,0.31 -3.45,-4.77 -1.65,-6.64z" fill="#4e61d3"/>
  <path id="path3440" d="m362.01,123.87c1.12,-1.12 1.85,-3.32 3.83,-2.83c0.81,0.91 1.57,1.86 2.3,2.84c-2.05,0.04 -4.09,0.03 -6.13,-0.01z" fill="#4e61d3"/>
  <path id="path3442" d="m372.03,125.19c1.57,-0.41 3.14,-0.82 4.72,-1.2c-0.47,2.48 -1.87,4.22 -4.53,4.32c-0.04,-0.78 -0.14,-2.34 -0.19,-3.12z" fill="#4e61d3"/>
  <path id="path3444" d="m277.02,134.21c10.26,1.03 20.55,1.73 30.82,2.59c-4.97,8.93 -10.05,17.79 -15.05,26.7c-1.25,-2.26 -2.48,-4.53 -3.72,-6.79c-22.92,13.58 -46.16,26.64 -69.17,40.08c-0.06,4.43 0.38,9.22 -1.99,13.19c-2.71,4.91 -8.23,7.97 -13.84,7.71c-52.03,-0.01 -104.08,-0.01 -156.11,0c-6.14,0.32 -12.13,-3.43 -14.57,-9.05c-1.54,-3.32 -1.26,-7.05 -1.29,-10.61c0.12,-14.03 -0.1,-28.07 0.1,-42.1c0.11,-7.76 7.08,-14.5 14.83,-14.45c50.65,-0.11 101.32,0.01 151.98,-0.06c3.56,0.05 7.25,-0.27 10.69,0.89c5.71,1.92 9.96,7.55 10.1,13.6c0.22,7.03 -0.01,14.06 0.09,21.09c15.67,-9.01 31.3,-18.09 46.96,-27.12c4.76,-2.73 9.43,-5.64 14.4,-7.98c-1.39,-2.58 -2.78,-5.15 -4.23,-7.69z" fill="#d6e815"/>
  <path id="path3446" d="m364.11,135.87c0.55,1.11 1.11,2.21 1.67,3.32c-1.27,2.97 -1.7,6.57 0.91,8.98c-0.75,-0.07 -2.27,-0.2 -3.02,-0.26c-0.18,-2.35 -0.3,-4.7 -0.39,-7.04c-0.24,-0.35 -0.72,-1.04 -0.97,-1.39c0.6,-1.2 1.2,-2.4 1.8,-3.61z" fill="#4f5833"/>
  <path id="path3448" d="m338.27,139.14c2.44,-1.08 3.73,1.35 5.03,2.93c-1.42,-0.68 -2.81,-1.45 -4.27,-2.03c-1.93,1.57 -1.31,4.64 -0.62,6.73c1.84,0.31 3.36,-1.31 5.03,-1.86c-1.3,1.64 -2.68,4 -5.16,2.96c-2.87,-1.84 -2.88,-6.89 -0.01,-8.73z" fill="#4f5833"/>
  <path id="path3450" d="m345.55,138.13c1.3,2.72 1.08,5.8 1.6,8.7c0.73,-0.01 2.2,-0.02 2.94,-0.03c0.61,-2.94 0.46,-6.05 1.7,-8.84c0.57,3.28 0.57,6.61 0.64,9.93c-2.19,-0.23 -4.79,0.68 -6.62,-0.79c-1.18,-2.82 -0.5,-6.03 -0.26,-8.97z" fill="#4f5833"/>
  <path id="path3452" d="m354.07,142.09c0.45,-1.27 1.02,-2.49 1.58,-3.71c2,0.64 4,1.32 5.93,2.16c-1.91,-0.11 -3.82,-0.31 -5.74,-0.34c-0.66,3.48 6.28,2.06 5.45,5.84c-1.61,3.21 -5.57,1.93 -7.88,0.33c2.13,-0.27 5.63,1.87 6.5,-1.01c-1.92,-1.15 -4.04,-1.94 -5.84,-3.27z" fill="#4f5833"/>
  <path id="path3454" d="m369.62,148.08c-2.62,-2.6 -2.63,-6.6 0.05,-9.16c0.92,-0.02 2.77,-0.04 3.69,-0.05c2.75,2.57 2.74,6.67 0.02,9.26c-0.94,-0.01 -2.82,-0.04 -3.76,-0.05z" fill="#4f5833"/>
  <path id="path3456" d="m377.3,139.05c2.24,0.1 4.49,0.2 6.73,0.45c1.45,-0.28 2.91,-0.56 4.38,-0.83c0.99,3.25 1.3,6.73 0.44,10.05c-1.69,-2.78 -0.97,-6.22 -1.42,-9.3c-4.74,0.74 -2.77,6.2 -3.74,9.48c-1.59,-2.86 -1.21,-6.24 -1.52,-9.38c-4.29,0.67 -3.25,5.37 -3.5,8.5c-0.33,-0.03 -1,-0.1 -1.33,-0.13c0,-2.95 -0.02,-5.89 -0.04,-8.84z" fill="#4f5833"/>
  <path id="path3458" d="m394.93,148.05c-5.08,-0.08 -5.04,-9.03 0.03,-9.1c3.01,-0.49 3.86,2.85 4.77,4.96c-2.56,0.1 -5.11,0.15 -7.65,0.27c0.7,0.91 1.45,1.78 2.23,2.63c1.94,0.06 3.62,-1.27 5.44,-1.8c-1.4,1.26 -2.58,3.47 -4.82,3.04z" fill="#4f5833"/>
  <path id="path3460" d="m400.87,139.23c1.55,-0.1 3.11,-0.2 4.66,-0.3l-0.19,0.43c-4.13,1.47 -2.13,6.44 -3.96,9.52c-0.46,-3.19 -0.51,-6.42 -0.51,-9.65z" fill="#4f5833"/>
  <path id="path3462" d="m406.18,141.03c1.2,-3.35 5.17,-1.94 7.32,-0.4c-1.89,-0.15 -3.76,-0.4 -5.65,-0.47c-0.68,3.51 6.07,2.08 5.52,5.82c-1.66,3.24 -5.72,2.13 -7.96,0.21c1.89,0.25 3.77,0.59 5.66,0.91c0.21,-0.49 0.64,-1.48 0.85,-1.97c-1.9,-1.26 -5.79,-1.28 -5.74,-4.1z" fill="#4f5833"/>
  <path id="path3464" d="m370.09,140.35c4.63,-2.51 5.56,7.26 0.97,6.64c-2.55,-0.9 -2.41,-4.78 -0.97,-6.64z" fill="#4e61d3"/>
  <path id="path3466" d="m392.17,142.86c1.08,-1.11 1.8,-3.13 3.69,-2.88c0.87,0.92 1.69,1.88 2.48,2.88c-2.06,0.04 -4.12,0.04 -6.17,0z" fill="#4e61d3"/>
  <path id="path3468" d="m65.02,176.13c0.4,-1.35 1.62,-2.06 2.7,-2.82c1.89,4.41 3.85,8.8 5.23,13.4c-1.83,-0.98 -2.74,-2.83 -3.62,-4.6c-1.58,-0.04 -3.16,-0.05 -4.74,-0.06c-0.9,1.79 -1.9,3.57 -3.63,4.69c1.09,-3.63 2.51,-7.16 4.06,-10.61z" fill="#4f5833"/>
  <path id="path3470" d="m99.29,174.21c4.33,-0.49 8.69,-0.13 13.03,-0.18l-0.17,0.91c-2.08,0.01 -4.16,0.07 -6.24,0.11c0,3.65 0,7.3 0.01,10.95c-0.42,-0.01 -1.26,-0.03 -1.69,-0.04c0.02,-3.51 0.02,-7.02 0.02,-10.53c-1.67,-0.35 -3.33,-0.7 -4.96,-1.22z" fill="#4f5833"/>
  <path id="path3472" d="m122.78,174l1.57,0c-0.01,2.06 -0.02,4.13 -0.05,6.2c1.8,-1.46 3.66,-2.89 5.83,-3.77c-1.07,1.34 -2.2,2.63 -3.35,3.9c1.23,2.08 2.43,4.17 3.44,6.37c-2.07,-1.33 -3.65,-3.22 -5.35,-4.97c-0.34,1.41 -0.58,2.85 -0.83,4.28l-1.26,0c-0.01,-4 -0.01,-8.01 0,-12.01z" fill="#4f5833"/>
  <path id="path3474" d="m140.33,177.16c0.6,-1.14 1.2,-2.27 1.81,-3.4c0.53,1.2 1.06,2.42 1.6,3.62c-1.82,2.96 -1.04,6.51 0.65,9.32c-0.7,-0.34 -2.09,-1.03 -2.79,-1.37c-0.61,-2.69 -0.76,-5.46 -1.27,-8.17z" fill="#4f5833"/>
  <path id="path3476" d="m150.97,178.74c-0.84,-1.98 0.86,-3.51 1.76,-5.08c3.04,-0.05 6.07,0.72 7.46,3.7c-1.49,-0.63 -2.86,-1.47 -4.16,-2.4c-1.85,0.02 -3.28,0.99 -4.35,2.41c2.5,1.21 5.48,1.61 7.63,3.41c1.98,2.69 -1.51,5.98 -4.33,5.29c-2.81,0.37 -4.22,-2.41 -5.38,-4.42c2.31,1.17 4.3,3.98 7.18,3.23c0.88,-0.74 1.36,-1.69 1.44,-2.85c-2.36,-1.23 -5.04,-1.77 -7.25,-3.29z" fill="#4f5833"/>
  <path id="path3478" d="m162.38,174.38c0.26,0.26 0.26,0.26 0,0z" fill="#4f5833"/>
  <path id="path3480" d="m66.85,175.73c0.76,1.73 1.51,3.46 2.25,5.2c-1.4,0.03 -2.79,0.05 -4.19,0.07c0.64,-1.76 1.29,-3.52 1.94,-5.27z" fill="#d6e815"/>
  <path id="path3482" d="m72.66,176.12c2.16,1.94 2.94,4.79 3.94,7.41c0.94,-2.6 1.72,-5.4 3.82,-7.37c-0.9,3.49 -1.27,7.79 -4.19,10.25c-1.77,-3.2 -2.91,-6.71 -3.57,-10.29z" fill="#4f5833"/>
  <path id="path3484" d="m82.24,184.64c-1.62,-2.35 -1.2,-6.57 1.81,-7.54c1.71,-0.2 3.43,-0.17 5.15,-0.22c-0.04,4.21 0.81,8.88 -1.93,12.49c-2.29,-0.19 -4.62,-0.55 -6.4,-2.15c2.55,0.34 5.35,1.24 7.44,-0.85c-1.98,-0.49 -4.69,0.2 -6.07,-1.73z" fill="#4f5833"/>
  <path id="path3486" d="m110.84,177.41c0.28,-0.22 0.86,-0.66 1.15,-0.87c0.41,3.28 0.4,6.61 0,9.9c-2.69,-1.85 -1.09,-6.19 -1.15,-9.03z" fill="#4f5833"/>
  <path id="path3488" d="m115.73,176.89c0.83,0.02 2.48,0.07 3.3,0.1c0.64,1.08 1.27,2.17 1.9,3.27c-1.52,-0.73 -2.86,-2.12 -4.64,-2.08c-0.65,2.1 -0.86,4.42 0.04,6.49c1.75,0.62 3.25,-1.41 4.86,-1.93c-0.71,1.09 -1.43,2.18 -2.15,3.27c-0.82,0.03 -2.47,0.08 -3.29,0.1c-2.28,-2.78 -2.28,-6.43 -0.02,-9.22z" fill="#4f5833"/>
  <path id="path3490" d="m131.65,184.38c-1.95,-2.7 -0.37,-7.69 3.36,-7.44c2.97,-0.45 3.77,2.91 4.6,5c-2.57,0.07 -5.13,0.13 -7.69,0.27c1.12,0.99 2.22,2.01 3.3,3.05c1.38,-0.94 2.76,-1.89 4.18,-2.78c-0.8,1.31 -1.62,2.6 -2.44,3.89c-1.81,-0.43 -4.18,-0.21 -5.31,-1.99z" fill="#4f5833"/>
  <path id="path3492" d="m161.61,185.95c0.55,-3.01 -1.33,-7.31 1.36,-9.43c0.37,2.99 0.27,6.01 0.34,9.01c0.53,-0.25 1.59,-0.74 2.12,-0.99c1.37,-2.28 3,-4.39 4.63,-6.49c-1.71,-0.02 -3.41,-0.04 -5.11,-0.05l-0.1,-1c2.61,0 5.22,0 7.84,0c-1.93,2.71 -3.99,5.32 -6.07,7.9c2.21,0.04 4.43,0.05 6.64,0.3c-3.68,1.6 -7.78,0.51 -11.65,0.75z" fill="#4f5833"/>
  <path id="path3494" d="m173.42,181.02c0.06,-1.66 1.43,-2.82 2.3,-4.11c0.92,0 2.78,0 3.7,-0.01c1.03,1.61 1.98,3.26 2.89,4.94c-2.61,0.19 -5.22,0.25 -7.83,0.43c0.81,0.94 1.61,1.89 2.53,2.74c1.77,-0.6 3.42,-1.5 5.17,-2.18c-1.46,2.24 -3.69,3.52 -6.37,3.65c-1.05,-1.68 -2.72,-3.3 -2.39,-5.46z" fill="#4f5833"/>
  <path id="path3496" d="m84.29,178.13c3.81,-1.09 4.51,5.39 1.65,6.87c-3.47,0.38 -3.7,-5.02 -1.65,-6.87z" fill="#d6e815"/>
  <path id="path3498" d="m132.14,180.89c1.09,-1.08 1.71,-3.35 3.65,-2.83c0.79,0.9 1.54,1.84 2.25,2.82c-1.97,0.04 -3.93,0.05 -5.9,0.01z" fill="#d6e815"/>
  <path id="path3500" d="m174.52,180.78c1.18,-1.02 2.04,-3.62 3.98,-2.49c0.72,0.83 1.41,1.7 2.05,2.6c-2.01,0.02 -4.02,-0.02 -6.03,-0.11z" fill="#d6e815"/>
  <path id="path3502" d="m91.96,185.1c2.99,-1.56 0.18,3.3 0,0z" fill="#4f5833"/>
  <path id="path3504" d="m32.18,269.9c0.06,-8.12 7.74,-14.87 15.75,-14.45c50.02,-0.03 100.05,0.01 150.07,-0.02c4.36,0.07 8.98,-0.48 13.06,1.43c5.02,2.29 8.59,7.47 8.74,13.02c0.21,8.4 0,16.8 0.07,25.2c18.75,7.53 37.45,15.16 56.2,22.69c3.66,1.43 7.33,2.88 10.71,4.91c0.98,-2.31 1.99,-4.59 2.99,-6.87c5.81,8.48 11.26,17.21 17.11,25.68c-10.22,1.33 -20.38,3.09 -30.59,4.45c1.28,-2.8 2.55,-5.61 3.84,-8.41c-3.42,-1.01 -6.74,-2.3 -10.03,-3.66c-16.67,-6.78 -33.39,-13.45 -50.06,-20.23c-0.23,3.72 -0.29,7.72 -2.49,10.93c-2.79,4.58 -8.1,7.34 -13.45,7.12c-52.04,-0.01 -104.07,-0.01 -156.11,0c-5.61,0.27 -11.18,-2.77 -13.89,-7.71c-1.99,-3.3 -2.04,-7.26 -2,-10.99c0.11,-14.36 -0.08,-28.73 0.08,-43.09z" fill="#d6e815"/>
  <path id="path3506" d="m478.44,272.54c10.24,0.98 20.51,1.76 30.77,2.56c-5.05,8.93 -10.05,17.9 -15.1,26.84c-1.22,-2.33 -2.44,-4.65 -3.65,-6.98c-16.66,9.51 -33.28,19.1 -49.85,28.77c0.16,21.09 0.04,42.17 0.07,63.26c0.21,6.96 -3.17,13.96 -9.04,17.79c-3.95,2.78 -8.88,3.65 -13.63,3.55c-29.98,-0.08 -59.97,0.05 -89.94,-0.06c-8.05,0 -15.63,-5.3 -18.65,-12.7c-1.66,-3.96 -1.58,-8.35 -1.56,-12.56c0.09,-18.99 -0.05,-37.99 0.05,-56.98c-0.03,-6.73 3.36,-13.43 9.03,-17.11c3.79,-2.63 8.48,-3.57 13.03,-3.5c30.02,0.05 60.04,-0.01 90.06,0.04c4.23,-0.07 8.23,1.48 11.92,3.42c16.79,-9.73 33.6,-19.42 50.42,-29.11c-1.29,-2.42 -2.59,-4.84 -3.93,-7.23z" fill="#4e61d3"/>
  <path id="path3508" d="m64,290.98c-2.62,-3.86 -1.18,-8.99 -1.05,-13.35c3.74,1.87 5.1,6.35 7.67,9.45c0,-3.36 -0.01,-6.72 0.39,-10.06c2.57,3.71 1.09,8.64 1.22,12.86c-0.3,0.07 -0.9,0.19 -1.2,0.26c-2.67,-2.72 -4.48,-6.12 -6.65,-9.2c0,3.34 0.01,6.7 -0.38,10.04z" fill="#4f5833"/>
  <path id="path3510" d="m98.23,278.07c0.42,-0.03 1.25,-0.08 1.67,-0.1c0.01,0.73 0.02,2.19 0.02,2.92c1.3,0.02 2.6,0.09 3.89,0.23c2.62,1.54 3.16,5.55 1.11,7.76c-1.69,1.9 -4.48,0.89 -6.7,1.14c0.03,-3.99 0.03,-7.97 0.01,-11.95z" fill="#4f5833"/>
  <path id="path3512" d="m135.85,281.56c1.59,-1.88 3.09,-4.23 5.96,-3.89c-1.02,0.92 -2.07,1.83 -3.1,2.74c0.7,0.33 2.11,1 2.81,1.33c-0.6,0.12 -1.82,0.35 -2.43,0.46c0.03,2.9 0.01,5.79 -0.29,8.68c-2.09,-2.29 -1.19,-5.53 -1.32,-8.31c-0.4,-0.25 -1.22,-0.76 -1.63,-1.01z" fill="#4f5833"/>
  <path id="path3514" d="m146.81,288c-0.21,-3.6 -0.05,-7.22 0.16,-10.82c3.42,2.56 5.38,6.44 7.76,9.88c0.02,-3.32 0.01,-6.64 0.3,-9.94c3.09,3.73 0.99,9.17 1.34,13.6c-3.44,-2.26 -5.17,-6.16 -7.67,-9.29c-0.11,3.11 -0.14,6.23 -0.39,9.34c-0.78,-0.76 -1.66,-1.55 -1.5,-2.77z" fill="#4f5833"/>
  <path id="path3516" d="m75.03,288.83c-0.7,-2.86 -0.89,-6.16 0.76,-8.74c0.49,2.94 0.09,6.07 1.17,8.91c4.42,0.67 2.77,-5.34 3.22,-8c0.43,0 1.29,0 1.72,0c0.01,2.96 0.03,5.92 0.07,8.89c-2.28,-0.29 -5.33,1.13 -6.94,-1.06z" fill="#4f5833"/>
  <path id="path3518" d="m83.88,280.91c2.3,0.08 4.61,0.17 6.88,0.53c1.5,-0.28 3,-0.53 4.51,-0.76c0.89,3.33 1.06,6.81 0.55,10.22c-1.99,-2.52 -1.14,-5.89 -1.81,-8.81c-0.51,-0.02 -1.54,-0.06 -2.06,-0.08c-1.63,2.3 -0.85,5.35 -1.13,7.99c-0.42,0 -1.25,0 -1.67,0c-0.06,-2.78 -0.17,-5.56 -0.39,-8.33c-4.85,0.66 -2.02,6.39 -4.53,9.22c-0.39,-3.31 -0.36,-6.65 -0.35,-9.98z" fill="#4f5833"/>
  <path id="path3520" d="m109.85,290.49c-2.81,-2.65 -3.29,-6.98 -0.14,-9.58c0.93,0 2.79,-0.02 3.72,-0.02c1.01,1.62 1.95,3.29 2.84,4.98c-2.59,0.16 -5.19,0.21 -7.78,0.37c0.8,0.95 1.6,1.92 2.5,2.79c1.77,-0.62 3.43,-1.53 5.16,-2.24c-1.42,2.26 -3.62,3.56 -6.3,3.7z" fill="#4f5833"/>
  <path id="path3522" d="m117.04,281.07c1.85,-0.04 3.71,-0.09 5.57,-0.08c-1.2,0.59 -2.4,1.16 -3.6,1.72c-0.16,2.42 -0.26,4.85 -0.34,7.28c-0.39,0.01 -1.18,0.01 -1.57,0.02c-0.01,-2.98 -0.03,-5.96 -0.06,-8.94z" fill="#4f5833"/>
  <path id="path3524" d="m127.69,281.83c1.78,-0.46 3.58,-0.87 5.4,-1.23c2.77,2.84 2.75,7.01 -0.02,9.85c-1.68,-0.46 -3.65,-0.4 -4.99,-1.64c-1.51,-2.05 -0.6,-4.69 -0.39,-6.98z" fill="#4f5833"/>
  <path id="path3526" d="m158.42,285.06c0.12,-1.81 1.59,-3.11 2.47,-4.57c2.05,0.42 4.21,0.89 5.29,2.93c0.71,-0.99 1.37,-2.02 2.07,-3.01c0.85,2.29 1.63,4.62 2.4,6.95c0.65,-2.51 1.18,-5.17 2.96,-7.17c0.79,2.32 1.42,4.7 2,7.09c0.88,-2.51 1.66,-5.16 3.55,-7.12c-1.04,3.31 -0.74,8.22 -4.02,10.15c-0.81,-2.05 -1.32,-4.2 -1.92,-6.31c-1,2.12 -0.74,5.4 -3.23,6.39c-0.82,-1.96 -1.3,-4.04 -1.76,-6.1c-0.37,-0.16 -1.11,-0.48 -1.48,-0.64c0.1,4.05 -4.8,1.83 -7.28,2.6c0.81,0.94 1.61,1.91 2.53,2.77c1.77,-0.62 3.41,-1.53 5.14,-2.24c-1.4,2.31 -3.65,3.58 -6.35,3.69c-1.03,-1.67 -2.67,-3.28 -2.37,-5.41z" fill="#4f5833"/>
  <path id="path3528" d="m101.29,282.09c3.75,-0.83 4.05,5.07 1.71,6.91c-3.7,0.77 -4.25,-5.18 -1.71,-6.91z" fill="#d6e815"/>
  <path id="path3530" d="m108.51,284.78c0.83,-0.96 1.64,-1.95 2.58,-2.81c1.81,-0.15 2.44,1.85 3.47,2.92c-2.02,0.02 -4.04,-0.02 -6.05,-0.11z" fill="#d6e815"/>
  <path id="path3532" d="m130.27,282.11c3.85,-1.11 4.68,5.52 1.6,6.89c-3.53,0.46 -3.95,-5.17 -1.6,-6.89z" fill="#d6e815"/>
  <path id="path3534" d="m159.53,284.79c1.18,-1.02 2.03,-3.63 3.97,-2.5c0.73,0.83 1.41,1.69 2.05,2.6c-2.01,0.02 -4.02,-0.01 -6.02,-0.1z" fill="#d6e815"/>
  <path id="path3536" d="m84.82,297.87c1.56,-0.94 3.45,-0.9 5.19,-1.23c1.11,1.29 2.22,2.58 3.28,3.9c-2.08,-0.81 -3.94,-2.49 -6.24,-2.54c-3.87,1.71 -3.87,8.23 -0.04,9.99c2.68,0.21 4.41,-2.4 6.61,-3.48c-0.99,2.3 -2.7,5.05 -5.66,4.57c-5.7,0.38 -7.45,-8.33 -3.14,-11.21z" fill="#4f5833"/>
  <path id="path3538" d="m112.36,300.28c0.55,-1.22 1.1,-2.43 1.66,-3.65c0.58,1.25 1.15,2.49 1.74,3.74c-1.89,2.94 -0.98,6.47 0.56,9.33c-4.55,-0.84 -2.9,-6.14 -3.96,-9.42z" fill="#4f5833"/>
  <path id="path3540" d="m95.01,299.98c0.42,0.02 1.26,0.07 1.68,0.09c0.05,2.59 -0.01,5.22 0.47,7.79c0.68,-0.02 2.03,-0.04 2.71,-0.06c1.03,-2.45 0.63,-5.17 1,-7.74c0.34,-0.04 1.03,-0.11 1.37,-0.14c0.24,3.05 0.11,6.12 0.04,9.18c-2.25,-0.32 -5.17,0.72 -6.8,-1.32c-0.56,-2.56 -0.4,-5.2 -0.47,-7.8z" fill="#4f5833"/>
  <path id="path3542" d="m103.69,303.06c0.12,-2.85 3.04,-3.21 5.26,-3.4c0.7,0.77 1.41,1.54 2.12,2.31c-2.01,-0.23 -4.34,-1.56 -6.1,0.13c2.01,1.76 7.63,1.93 5.86,5.63c-2.08,2.41 -5.59,1.26 -7.68,-0.48c2.28,0.02 4.92,1.37 6.9,-0.44c-2.05,-1.39 -4.36,-2.31 -6.36,-3.75z" fill="#4f5833"/>
  <path id="path3544" d="m117.7,300.81c1.79,-0.45 3.59,-0.85 5.4,-1.2c0.78,1.41 1.98,2.69 2.17,4.36c0.35,2.13 -1.23,3.79 -2.21,5.48c-1.67,-0.46 -3.63,-0.4 -4.98,-1.63c-1.52,-2.06 -0.6,-4.71 -0.38,-7.01z" fill="#4f5833"/>
  <path id="path3546" d="m126.88,299.92c2.29,0.07 4.59,0.16 6.86,0.51c1.51,-0.27 3.03,-0.52 4.55,-0.74c0.86,3.33 1.03,6.8 0.53,10.21c-2.07,-2.65 -1.26,-6.21 -1.71,-9.3c-4.41,0.45 -2.95,5.37 -3.29,8.4c-0.42,0 -1.25,0 -1.67,0c-0.07,-2.78 -0.17,-5.55 -0.39,-8.32c-4.84,0.65 -2.02,6.4 -4.52,9.22c-0.4,-3.32 -0.37,-6.65 -0.36,-9.98z" fill="#4f5833"/>
  <path id="path3548" d="m141.62,307.34c-1.91,-2.7 -0.32,-7.64 3.39,-7.4c2.95,-0.46 3.77,2.9 4.6,4.99c-2.57,0.08 -5.14,0.15 -7.7,0.3c1.12,0.98 2.23,1.99 3.31,3.03c1.39,-0.95 2.76,-1.89 4.18,-2.79c-0.8,1.31 -1.62,2.6 -2.45,3.9c-1.82,-0.43 -4.21,-0.21 -5.33,-2.03z" fill="#4f5833"/>
  <path id="path3550" d="m150.88,300.04c1.71,-0.02 3.43,-0.04 5.15,-0.07c-1.07,0.69 -2.09,1.42 -3.08,2.21c-0.58,2.57 -0.01,5.47 -1.71,7.7c-0.4,-3.27 -0.37,-6.56 -0.36,-9.84z" fill="#4f5833"/>
  <path id="path3552" d="m154.93,301.98c2.44,-2.36 5.97,-2.64 8.5,-0.28c-2.27,-0.18 -4.59,-0.59 -6.81,0.19c1.98,1.84 6.91,1.75 6.56,5.13c-1.51,3.24 -5.87,2.19 -8.03,0.22c2.3,0.07 4.88,1.34 6.89,-0.39c-2.4,-1.58 -5.09,-2.76 -7.11,-4.87z" fill="#4f5833"/>
  <path id="path3554" d="m120.29,301.1c3.83,-1.04 4.62,5.44 1.63,6.9c-3.57,0.5 -4.03,-5.2 -1.63,-6.9z" fill="#d6e815"/>
  <path id="path3556" d="m142.14,303.89c1.1,-1.06 1.71,-3.38 3.64,-2.83c0.79,0.91 1.54,1.85 2.25,2.83c-1.96,0.04 -3.93,0.03 -5.89,0z" fill="#d6e815"/>
  <path id="path3558" d="m333.21,336.68c-1.7,-2.42 1.38,-5.12 3.82,-4.74c2.41,-0.43 3.89,1.65 4.82,3.53c-1.2,-0.83 -2.38,-1.68 -3.54,-2.54c-1.99,0.01 -3.64,0.83 -4.66,2.55c2.54,1.06 5.33,1.66 7.63,3.25c1.8,2.77 -1.47,5.9 -4.31,5.34c-2.79,0.28 -4.04,-2.44 -5.23,-4.4c2.44,1.94 6.65,5.53 8.86,1.3c-1.64,-2.57 -5.25,-2.32 -7.39,-4.29z" fill="#4f5833"/>
  <path id="path3560" d="m353.2,331.97c0.37,0.05 1.12,0.14 1.49,0.19c-0.05,3.91 -0.05,7.83 -0.01,11.75c-0.38,0.01 -1.12,0.05 -1.5,0.06c0.02,-4 0.02,-8 0.02,-12z" fill="#4f5833"/>
  <path id="path3562" d="m381.09,331.98c0.82,0.01 2.45,0.01 3.27,0.02c-1.27,0.86 -2.52,1.73 -3.76,2.62c2.83,0.38 5.69,0.52 8.55,0.45l-0.19,0.28c-4.23,1.21 -2.43,6.29 -3.46,9.49c-1.46,-2.65 -0.29,-5.95 -1.79,-8.5c-0.4,-0.13 -1.19,-0.38 -1.59,-0.5c-0.98,2.92 -0.31,6.17 -1.65,9.01c-0.41,-3.2 -0.61,-6.43 -1.23,-9.6c0.61,-1.09 1.23,-2.18 1.85,-3.27z" fill="#4f5833"/>
  <path id="path3564" d="m343.34,338.1c0.86,-1.17 1.73,-2.33 2.59,-3.5c1.59,0.52 3.76,0.23 4.85,1.74c0.76,2.64 0.38,5.45 0.42,8.17c-0.86,-0.84 -1.72,-1.65 -2.54,-2.51c0.72,-1.05 0.94,-2.15 0.66,-3.29c0.13,-0.58 0.39,-1.75 0.53,-2.33c-2.38,-0.51 -4.53,0.52 -6.51,1.72z" fill="#4f5833"/>
  <path id="path3566" d="m356.65,338.96c-0.08,-2.69 2.78,-4.59 5.3,-3.94c1.93,0.86 2.45,3.12 3.41,4.8c-2.61,0.17 -5.22,0.27 -7.81,0.49c1.11,1.01 2.27,2 3.49,2.9c1.35,-0.95 2.78,-1.85 4.43,-2.18c-1.68,1.98 -3.99,3.07 -6.51,3.5c-0.96,-1.75 -2.55,-3.43 -2.31,-5.57z" fill="#4f5833"/>
  <path id="path3568" d="m365.72,337.08c1.05,-1.86 3.22,-2.04 5.09,-2.45c0.73,0.74 1.47,1.48 2.22,2.22c-2.16,-0.42 -4.37,-0.73 -6.51,0c2.09,1.21 4.34,2.12 6.35,3.47c1.12,1.67 -0.54,2.91 -1.89,3.63c-2.1,0.6 -3.98,-0.67 -5.76,-1.56c1.97,-0.46 6.41,2.1 6.24,-1.18c-1.89,-1.39 -4.96,-1.61 -5.74,-4.13z" fill="#4f5833"/>
  <path id="path3570" d="m389.83,337.96c0.41,-2.56 3.44,-2.73 5.35,-3.59c1.31,1.91 3.16,3.93 2.42,6.45c-0.26,2.88 -3.57,3.07 -5.72,3.7c-1.1,-2 -2.8,-4.12 -2.05,-6.56z" fill="#4f5833"/>
  <path id="path3572" d="m399.46,335.15c3.69,0.4 7.68,-0.47 11.19,0.5c1.61,2.61 1.13,6.48 -0.25,9.22c-0.43,-3.06 -0.55,-6.15 -0.74,-9.22c-0.64,0.25 -1.92,0.75 -2.57,1c-1.63,2.24 0.26,5.91 -1.98,7.92c-0.46,-2.85 -0.39,-5.75 -0.84,-8.6c-0.56,0.05 -1.68,0.14 -2.24,0.19c-1.4,2.64 -0.91,5.83 -1.56,8.69c-1.32,-3.07 -0.99,-6.46 -1.01,-9.7z" fill="#4f5833"/>
  <path id="path3574" d="m357.67,338.86c1.2,-1.02 1.95,-3.69 3.94,-2.63c0.79,0.83 1.53,1.7 2.23,2.62c-2.06,0.04 -4.12,0.04 -6.17,0.01z" fill="#4e61d3"/>
  <path id="path3576" d="m393.19,336.02c4.13,-0.83 4.14,7.84 -0.05,6.91c-2.63,-0.88 -2.7,-6 0.05,-6.91z" fill="#4e61d3"/>
  <path id="path3578" d="m343.56,341.17c-0.32,-1.77 1.86,-2.47 3.25,-1.92c-0.45,0.52 -1.37,1.57 -1.83,2.09c1.28,0.96 2.6,1.89 3.8,2.97c-1.78,-0.24 -5.68,-0.31 -5.22,-3.14z" fill="#4f5833"/>
  <path id="path3580" d="m334.34,351.13c1.71,-0.16 3.42,0 5.13,0.1c-1.98,0.55 -3.97,1.07 -5.95,1.62c0.65,0.36 1.95,1.08 2.61,1.44c-3.18,2.1 -1.35,6.51 -2.29,9.64c-1.41,-2.59 -1.03,-5.59 -1.03,-8.41c-0.37,-0.25 -1.11,-0.75 -1.47,-1c0.98,-1.15 1.9,-2.36 3,-3.39z" fill="#4f5833"/>
  <path id="path3582" d="m356.3,350.6c1.75,3.35 0.81,7.02 0.23,10.53c0.64,0.43 1.91,1.27 2.54,1.69c-1.08,0.1 -2.16,0.21 -3.23,0.32c-0.33,-2.93 -0.69,-5.85 -1.26,-8.74c0.56,-1.27 1.13,-2.54 1.72,-3.8z" fill="#4f5833"/>
  <path id="path3584" d="m364.55,354.6c0.77,-1.28 1.52,-2.56 2.29,-3.83c0.1,0.76 0.32,2.27 0.43,3.02c0.32,0.08 0.97,0.23 1.3,0.3c-1.76,2.03 -1.37,4.79 -1.46,7.27c0.58,0.53 1.73,1.58 2.3,2.11c-1.19,-0.36 -2.35,-0.78 -3.49,-1.26c-0.33,-2.18 -0.22,-4.4 -0.24,-6.59c-0.28,-0.26 -0.85,-0.77 -1.13,-1.02z" fill="#4f5833"/>
  <path id="path3586" d="m370.22,351.11c2.94,-1.6 0.2,3.32 0,0z" fill="#4f5833"/>
  <path id="path3588" d="m337.18,354.02c0.37,0.03 1.12,0.08 1.5,0.11c-0.02,2.9 -0.02,5.81 0,8.71c-0.37,0.05 -1.11,0.14 -1.48,0.18c0,-3 -0.01,-6 -0.02,-9z" fill="#4f5833"/>
  <path id="path3590" d="m340.87,354.23c1.65,-0.11 3.31,-0.23 4.97,-0.36c-4.4,1.66 -2.76,6.57 -4.43,10.01c-0.48,-3.19 -0.54,-6.43 -0.54,-9.65z" fill="#4f5833"/>
  <path id="path3592" d="m345.3,356.93c0.88,-0.98 1.73,-2 2.74,-2.86c2.02,-0.64 3.78,0.72 5.48,1.59c-1.89,-0.17 -3.77,-0.43 -5.66,-0.51c-0.72,3.53 6.15,2.09 5.51,5.87c-1.05,1.94 -3.45,1.86 -5.3,2.36c-0.78,-0.8 -1.56,-1.6 -2.34,-2.4c1.77,0.4 3.55,0.79 5.34,1.17c0.21,-0.5 0.63,-1.5 0.84,-2c-2.23,-1.03 -4.44,-2.07 -6.61,-3.22z" fill="#4f5833"/>
  <path id="path3594" d="m370.59,353.14c1.63,3.31 1.68,7.4 -0.03,10.7c-0.49,-3.55 -0.49,-7.16 0.03,-10.7z" fill="#4f5833"/>
  <path id="path3596" d="m374.3,364c-0.6,-3.32 -0.53,-6.7 -0.48,-10.04c2.19,0.13 4.38,0.25 6.58,0.45c1.61,-0.04 3.58,-1.06 4.83,0.43c0.96,2.57 0.48,5.44 0.66,8.14c-0.38,-0.02 -1.13,-0.05 -1.5,-0.06c-0.05,-2.81 -0.13,-5.61 -0.29,-8.41c-1.14,0.44 -2.23,0.97 -3.26,1.61c-0.28,2.23 -0.22,4.48 -0.23,6.73c-0.41,0.05 -1.23,0.14 -1.65,0.18c-0.03,-2.79 -0.08,-5.58 -0.22,-8.37c-4.72,0.52 -2.84,6.16 -4.44,9.34z" fill="#4f5833"/>
  <path id="path3598" d="m387.79,356.97c0.47,-2.53 3.48,-2.75 5.4,-3.62c1.1,1.8 2.16,3.63 3.17,5.48c-2.61,0.16 -5.22,0.26 -7.82,0.47c1.15,1 2.32,2 3.5,2.98c1.37,-0.91 2.77,-1.8 4.2,-2.62c-1.26,1.23 -2.17,3.55 -4.24,3.4c-3.24,0.37 -5.13,-3.32 -4.21,-6.09z" fill="#4f5833"/>
  <path id="path3600" d="m388.67,357.86c1.18,-1.04 1.95,-3.69 3.95,-2.64c0.77,0.85 1.5,1.73 2.19,2.65c-2.05,0.03 -4.09,0.03 -6.14,-0.01z" fill="#4e61d3"/>
  <path id="path3602" d="m359.62,358.27c1.05,-0.84 2.84,-0.83 3.91,0.01c-0.1,1.5 -3.8,1.47 -3.91,-0.01z" fill="#4f5833"/>
  <path id="path3604" d="m358.11,373.47c0.69,-1.2 1.38,-2.38 2.08,-3.57c0.56,1.29 1.13,2.57 1.71,3.86c-0.33,0.25 -1,0.75 -1.33,1.01c0.03,1.73 0.07,3.48 0.11,5.22c0.5,0.62 1.51,1.85 2.01,2.47c-4.46,0.19 -3.33,-4.68 -3.6,-7.54c-0.24,-0.36 -0.73,-1.09 -0.98,-1.45z" fill="#4f5833"/>
  <path id="path3606" d="m32.19,386.04c0.16,-8.08 7.75,-14.98 15.81,-14.42c52.34,0.04 104.68,-0.04 157.01,0.04c7.64,-0.12 14.55,6.6 14.77,14.22c0.25,9.45 0,18.92 0.1,28.38c18.51,-10.62 36.99,-21.31 55.47,-31.98c1.9,-1.09 3.87,-2.06 5.85,-2.99c-1.32,-2.59 -2.67,-5.16 -4.03,-7.71c10.22,0.91 20.45,1.65 30.68,2.48c-5.01,8.95 -10.08,17.87 -15.1,26.82c-1.23,-2.33 -2.47,-4.65 -3.71,-6.97c-17.33,10.52 -35.07,20.35 -52.56,30.6c-5.45,3.04 -10.67,6.5 -16.38,9.04c-0.8,3.1 -1.58,6.38 -3.74,8.87c-2.95,3.66 -7.66,5.62 -12.33,5.47c-51.02,-0.06 -102.04,-0.06 -153.06,0.01c-3.93,-0.02 -8.17,0.05 -11.58,-2.22c-4.69,-2.79 -7.41,-8.23 -7.26,-13.63c0.03,-15.33 -0.1,-30.67 0.06,-46.01z" fill="#d6e815"/>
  <path id="path3608" d="m334.17,373.05c2.37,-0.81 3.69,1.4 5.01,2.9c-1.64,-0.67 -3.25,-1.43 -4.94,-1.95c-0.76,2.25 -0.82,4.7 0,6.95c1.81,-0.3 3.39,-1.29 5.04,-2.03c-1.31,1.59 -2.62,3.86 -5.07,3.04c-2.97,-1.91 -2.97,-6.96 -0.04,-8.91z" fill="#4f5833"/>
  <path id="path3610" d="m341.29,372.11c1.54,2.85 1.27,6.17 1.6,9.29c1.07,-0.7 3.5,-0.52 3.43,-2.3c0.27,-2.29 0.34,-4.6 0.58,-6.88c2.21,2.77 1.09,6.54 1.27,9.8c-2.19,-0.43 -5.22,0.73 -6.76,-1.27c-0.84,-2.81 -0.43,-5.79 -0.12,-8.64z" fill="#4f5833"/>
  <path id="path3612" d="m349.17,375.91c0.92,-1 1.8,-2.04 2.86,-2.9c1.95,-0.41 3.66,0.76 5.34,1.54c-2.06,0.21 -4.76,-1.22 -6.29,0.63c2.12,1.28 4.54,2.11 6.42,3.79c-0.93,4.08 -5.69,3.45 -8.27,1.43c1.97,-0.46 6.43,2.09 6.24,-1.2c-2.03,-1.23 -4.21,-2.18 -6.3,-3.29z" fill="#4f5833"/>
  <path id="path3614" d="m365.33,373.39c2.55,-1.55 5.98,0.69 5.92,3.61c0.42,2.51 -1.52,5.4 -4.26,5.05c-4.3,0.01 -5.18,-6.86 -1.66,-8.66z" fill="#4f5833"/>
  <path id="path3616" d="m372.87,373.13c3.67,0.15 7.34,0.03 11.01,0.14c2.1,2.71 0.99,6.48 0.85,9.6c-1.57,-2.7 -1.12,-5.94 -1.62,-8.9c-0.71,0.1 -2.11,0.31 -2.82,0.41c-0.59,2.48 -0.53,5.05 -0.59,7.59c-0.35,0 -1.06,0.02 -1.41,0.02c-0.06,-2.66 -0.04,-5.35 -0.46,-7.98c-1.39,-0.29 -3.15,0.3 -3.04,2c-0.35,2.3 -0.44,4.7 -1.4,6.86c-0.48,-3.22 -0.52,-6.49 -0.52,-9.74z" fill="#4f5833"/>
  <path id="path3618" d="m390.01,382c-4.52,-0.59 -4.56,-8.41 0,-8.98c3.13,-0.9 4.29,2.64 5.32,4.81c-2.62,0.16 -5.24,0.28 -7.85,0.5c1.18,0.97 2.36,1.95 3.55,2.92c1.39,-0.88 2.79,-1.74 4.23,-2.54c-1.39,1.54 -2.76,4.05 -5.25,3.29z" fill="#4f5833"/>
  <path id="path3620" d="m396.62,373.15c1.66,-0.03 3.33,-0.07 4.99,-0.09c-5.12,1.06 -2.04,6.61 -4.55,9.46c-0.51,-3.1 -0.41,-6.25 -0.44,-9.37z" fill="#4f5833"/>
  <path id="path3622" d="m401.86,375.1c1.39,-3.35 5.24,-2.04 7.5,-0.46c-2.12,0.06 -4.6,-1.1 -6.42,0.43c2.13,1.3 4.5,2.21 6.46,3.79c-0.64,1.28 -1.38,2.5 -2.11,3.73c-2.08,-0.59 -4.13,-1.25 -6.08,-2.16c1.99,-0.48 6.3,2.02 6.3,-1.2c-1.81,-1.43 -5.12,-1.52 -5.65,-4.13z" fill="#4f5833"/>
  <path id="path3624" d="m366.14,374.01c4.02,-1.03 4.94,5.57 1.77,6.95c-3.66,0.68 -4.05,-5.07 -1.77,-6.95z" fill="#4e61d3"/>
  <path id="path3626" d="m387.66,376.85c1.21,-0.98 1.94,-3.62 3.91,-2.67c0.8,0.85 1.55,1.74 2.26,2.68c-2.06,0.04 -4.12,0.04 -6.17,-0.01z" fill="#4e61d3"/>
  <path id="path3628" d="m65.06,409.04c0.41,-1.31 1.62,-1.98 2.65,-2.74c1.9,4.41 3.86,8.81 5.24,13.42c-1.84,-0.99 -2.76,-2.85 -3.65,-4.63c-1.56,-0.03 -3.13,-0.05 -4.69,-0.04c-0.91,1.78 -1.93,3.56 -3.65,4.69c1.1,-3.66 2.53,-7.22 4.1,-10.7z" fill="#4f5833"/>
  <path id="path3630" d="m100.18,407c3.99,-0.02 7.98,0 11.97,0.02l0.16,0.92c-2.13,0.01 -4.26,0.07 -6.4,0.11c0,3.66 0,7.32 0,10.98c-0.42,-0.03 -1.27,-0.09 -1.69,-0.13c0.03,-3.63 0.03,-7.26 0.03,-10.89c-1.35,-0.01 -2.7,-0.02 -4.05,-0.02l-0.02,-0.99z" fill="#4f5833"/>
  <path id="path3632" d="m122.78,407l1.57,0c-0.01,2.08 -0.02,4.15 -0.05,6.23c1.79,-1.48 3.65,-2.93 5.83,-3.8c-1.07,1.34 -2.2,2.62 -3.35,3.9c1.23,2.07 2.43,4.16 3.44,6.36c-2.14,-1.4 -3.85,-3.3 -5.62,-5.11c-0.12,1.47 -0.24,2.94 -0.34,4.42l-1.48,0c-0.01,-4 -0.01,-8 0,-12z" fill="#4f5833"/>
  <path id="path3634" d="m140.33,410.27c0.59,-1.18 1.18,-2.35 1.78,-3.52c0.54,1.2 1.09,2.39 1.64,3.59c-1.76,2.99 -1.11,6.52 0.64,9.36c-4.66,-0.73 -2.91,-6.16 -4.06,-9.43z" fill="#4f5833"/>
  <path id="path3636" d="m159.03,407.09c3,-1.54 0.15,3.31 0,0z" fill="#4f5833"/>
  <path id="path3638" d="m64.89,413.99c0.67,-1.78 1.35,-3.56 2.04,-5.33c0.72,1.75 1.42,3.52 2.12,5.29c-1.39,0.01 -2.77,0.03 -4.16,0.04z" fill="#d6e815"/>
  <path id="path3640" d="m72.66,409.12c2.17,1.9 2.9,4.75 3.85,7.35c1,-2.58 1.87,-5.32 3.9,-7.3c-0.87,3.51 -1.3,7.74 -4.16,10.26c-1.78,-3.2 -2.93,-6.72 -3.59,-10.31z" fill="#4f5833"/>
  <path id="path3642" d="m82.29,417.7c-1.68,-2.34 -1.27,-6.55 1.72,-7.6c1.72,-0.2 3.46,-0.16 5.2,-0.2c-0.05,4.21 0.8,8.86 -1.95,12.47c-2.29,-0.2 -4.61,-0.56 -6.39,-2.15c2.56,0.34 5.37,1.25 7.45,-0.85c-1.96,-0.51 -4.63,0.2 -6.03,-1.67z" fill="#4f5833"/>
  <path id="path3644" d="m110.85,410.41c0.27,-0.22 0.82,-0.68 1.09,-0.91c0.46,3.3 0.47,6.66 0.04,9.96c-2.64,-1.92 -1.1,-6.2 -1.13,-9.05z" fill="#4f5833"/>
  <path id="path3646" d="m115.74,409.89c0.83,0.02 2.47,0.08 3.3,0.1c0.64,1.09 1.27,2.18 1.89,3.29c-1.55,-0.4 -4.07,-3.79 -4.8,-1.11c-0.85,1.84 -0.25,3.92 0.21,5.79c1.79,-0.28 3.25,-1.44 4.84,-2.23c-0.71,1.09 -1.42,2.18 -2.13,3.28c-0.83,0.02 -2.48,0.08 -3.31,0.1c-2.28,-2.79 -2.27,-6.44 0,-9.22z" fill="#4f5833"/>
  <path id="path3648" d="m131.61,417.32c-1.86,-2.67 -0.35,-7.54 3.31,-7.37c3.01,-0.53 3.88,2.86 4.68,5c-2.52,0.07 -5.04,0.09 -7.56,0.2c0.73,0.97 1.5,1.92 2.31,2.84c1.85,-0.37 3.43,-1.49 5.12,-2.26c-0.86,1.21 -1.74,2.41 -2.62,3.62c-1.8,-0.41 -4.15,-0.23 -5.24,-2.03z" fill="#4f5833"/>
  <path id="path3650" d="m149.7,413.05c0.36,-4.23 5.48,-3.54 7.75,-1.3c-2.08,0.08 -4.61,-1.37 -6.33,0.34c1.99,1.27 4.12,2.29 6.13,3.53c1.07,-2.12 1.9,-4.35 2.96,-6.46c0.36,3.15 0.62,6.37 0.16,9.54c-0.24,0.15 -0.73,0.45 -0.98,0.6c-0.19,-0.69 -0.56,-2.09 -0.74,-2.79c-0.59,0.21 -1.76,0.64 -2.35,0.85l0.41,1.29c-2.67,0.62 -5.46,0.57 -7.56,-1.41c2.27,0 4.94,1.42 6.89,-0.43c-2.05,-1.38 -4.35,-2.32 -6.34,-3.76z" fill="#4f5833"/>
  <path id="path3652" d="m161.14,410.7c2.77,-1.08 5.77,-0.7 8.66,-0.67c-1.9,2.69 -3.94,5.29 -5.99,7.88c2.21,0.03 4.43,0.03 6.64,0.3c-2.87,1.35 -6.09,0.7 -9.14,0.77c1.83,-2.7 3.85,-5.27 5.88,-7.83c-2.02,-0.08 -4.05,-0.17 -6.05,-0.45z" fill="#4f5833"/>
  <path id="path3654" d="m172.98,409.53c1.41,0.37 2.93,0.51 4.25,1.21c1.01,1.2 1.48,2.75 2.14,4.16c-2.6,0.12 -5.2,0.17 -7.79,0.37c1.11,0.98 2.22,1.96 3.35,2.91c1.43,-0.91 2.87,-1.81 4.36,-2.63c-1.24,2.59 -3.61,3.9 -6.46,3.85c-0.94,-1.65 -2.45,-3.26 -2.24,-5.3c0.14,-1.78 1.52,-3.11 2.39,-4.57z" fill="#4f5833"/>
  <path id="path3656" d="m84.34,411.06c3.82,-0.9 4.46,5.61 1.52,6.94c-3.46,0.27 -3.56,-5.1 -1.52,-6.94z" fill="#d6e815"/>
  <path id="path3658" d="m132.14,413.89c1.09,-1.08 1.71,-3.37 3.65,-2.83c0.79,0.91 1.53,1.85 2.24,2.83c-1.96,0.03 -3.93,0.03 -5.89,0z" fill="#d6e815"/>
  <path id="path3660" d="m171.74,413.86c1.16,-1 1.87,-3.62 3.81,-2.66c0.76,0.85 1.48,1.74 2.15,2.67c-1.99,0.03 -3.97,0.03 -5.96,-0.01z" fill="#d6e815"/>
  <path id="path3662" d="m91.96,418.1c2.99,-1.57 0.2,3.3 0,0z" fill="#4f5833"/>
 </g>
</svg>